<?xml version="1.0" encoding="utf-8" standalone="no"?>
<!DOCTYPE svg PUBLIC "-//W3C//DTD SVG 1.1//EN"
  "http://www.w3.org/Graphics/SVG/1.1/DTD/svg11.dtd">
<svg xmlns:xlink="http://www.w3.org/1999/xlink" width="790.681094pt" height="481.518969pt" viewBox="0 0 790.681094 481.518969" xmlns="http://www.w3.org/2000/svg" version="1.1">
 <metadata>
  <rdf:RDF xmlns:dc="http://purl.org/dc/elements/1.1/" xmlns:cc="http://creativecommons.org/ns#" xmlns:rdf="http://www.w3.org/1999/02/22-rdf-syntax-ns#">
   <cc:Work>
    <dc:type rdf:resource="http://purl.org/dc/dcmitype/StillImage"/>
    <dc:date>2026-04-23T17:44:13.570778</dc:date>
    <dc:format>image/svg+xml</dc:format>
    <dc:creator>
     <cc:Agent>
      <dc:title>Matplotlib v3.10.0, https://matplotlib.org/</dc:title>
     </cc:Agent>
    </dc:creator>
   </cc:Work>
  </rdf:RDF>
 </metadata>
 <defs>
  <style type="text/css">*{stroke-linejoin: round; stroke-linecap: butt}</style>
 </defs>
 <g id="figure_1">
  <g id="patch_1">
   <path d="M 0 481.518969 
L 790.681094 481.518969 
L 790.681094 0 
L 0 0 
z
" style="fill: #ffffff"/>
  </g>
  <g id="axes_1">
   <g id="patch_2">
    <path d="M 57.230547 422.3555 
L 780.540547 422.3555 
L 780.540547 41.7555 
L 57.230547 41.7555 
z
" style="fill: #ffffff"/>
   </g>
   <g id="matplotlib.axis_1">
    <g id="xtick_1">
     <g id="line2d_1">
      <defs>
       <path id="me9e3099d24" d="M 0 0 
L 0 3.5 
" style="stroke: #000000; stroke-width: 0.8"/>
      </defs>
      <g>
       <use xlink:href="#me9e3099d24" x="135.456863" y="422.3555" style="stroke: #000000; stroke-width: 0.8"/>
      </g>
     </g>
     <g id="text_1">
      <!-- CESI 2023 -->
      <g transform="translate(109.842801 436.953937) scale(0.1 -0.1)">
       <defs>
        <path id="DejaVuSans-43" d="M 4122 4306 
L 4122 3641 
Q 3803 3938 3442 4084 
Q 3081 4231 2675 4231 
Q 1875 4231 1450 3742 
Q 1025 3253 1025 2328 
Q 1025 1406 1450 917 
Q 1875 428 2675 428 
Q 3081 428 3442 575 
Q 3803 722 4122 1019 
L 4122 359 
Q 3791 134 3420 21 
Q 3050 -91 2638 -91 
Q 1578 -91 968 557 
Q 359 1206 359 2328 
Q 359 3453 968 4101 
Q 1578 4750 2638 4750 
Q 3056 4750 3426 4639 
Q 3797 4528 4122 4306 
z
" transform="scale(0.015625)"/>
        <path id="DejaVuSans-45" d="M 628 4666 
L 3578 4666 
L 3578 4134 
L 1259 4134 
L 1259 2753 
L 3481 2753 
L 3481 2222 
L 1259 2222 
L 1259 531 
L 3634 531 
L 3634 0 
L 628 0 
L 628 4666 
z
" transform="scale(0.015625)"/>
        <path id="DejaVuSans-53" d="M 3425 4513 
L 3425 3897 
Q 3066 4069 2747 4153 
Q 2428 4238 2131 4238 
Q 1616 4238 1336 4038 
Q 1056 3838 1056 3469 
Q 1056 3159 1242 3001 
Q 1428 2844 1947 2747 
L 2328 2669 
Q 3034 2534 3370 2195 
Q 3706 1856 3706 1288 
Q 3706 609 3251 259 
Q 2797 -91 1919 -91 
Q 1588 -91 1214 -16 
Q 841 59 441 206 
L 441 856 
Q 825 641 1194 531 
Q 1563 422 1919 422 
Q 2459 422 2753 634 
Q 3047 847 3047 1241 
Q 3047 1584 2836 1778 
Q 2625 1972 2144 2069 
L 1759 2144 
Q 1053 2284 737 2584 
Q 422 2884 422 3419 
Q 422 4038 858 4394 
Q 1294 4750 2059 4750 
Q 2388 4750 2728 4690 
Q 3069 4631 3425 4513 
z
" transform="scale(0.015625)"/>
        <path id="DejaVuSans-49" d="M 628 4666 
L 1259 4666 
L 1259 0 
L 628 0 
L 628 4666 
z
" transform="scale(0.015625)"/>
        <path id="DejaVuSans-20" transform="scale(0.015625)"/>
        <path id="DejaVuSans-32" d="M 1228 531 
L 3431 531 
L 3431 0 
L 469 0 
L 469 531 
Q 828 903 1448 1529 
Q 2069 2156 2228 2338 
Q 2531 2678 2651 2914 
Q 2772 3150 2772 3378 
Q 2772 3750 2511 3984 
Q 2250 4219 1831 4219 
Q 1534 4219 1204 4116 
Q 875 4013 500 3803 
L 500 4441 
Q 881 4594 1212 4672 
Q 1544 4750 1819 4750 
Q 2544 4750 2975 4387 
Q 3406 4025 3406 3419 
Q 3406 3131 3298 2873 
Q 3191 2616 2906 2266 
Q 2828 2175 2409 1742 
Q 1991 1309 1228 531 
z
" transform="scale(0.015625)"/>
        <path id="DejaVuSans-30" d="M 2034 4250 
Q 1547 4250 1301 3770 
Q 1056 3291 1056 2328 
Q 1056 1369 1301 889 
Q 1547 409 2034 409 
Q 2525 409 2770 889 
Q 3016 1369 3016 2328 
Q 3016 3291 2770 3770 
Q 2525 4250 2034 4250 
z
M 2034 4750 
Q 2819 4750 3233 4129 
Q 3647 3509 3647 2328 
Q 3647 1150 3233 529 
Q 2819 -91 2034 -91 
Q 1250 -91 836 529 
Q 422 1150 422 2328 
Q 422 3509 836 4129 
Q 1250 4750 2034 4750 
z
" transform="scale(0.015625)"/>
        <path id="DejaVuSans-33" d="M 2597 2516 
Q 3050 2419 3304 2112 
Q 3559 1806 3559 1356 
Q 3559 666 3084 287 
Q 2609 -91 1734 -91 
Q 1441 -91 1130 -33 
Q 819 25 488 141 
L 488 750 
Q 750 597 1062 519 
Q 1375 441 1716 441 
Q 2309 441 2620 675 
Q 2931 909 2931 1356 
Q 2931 1769 2642 2001 
Q 2353 2234 1838 2234 
L 1294 2234 
L 1294 2753 
L 1863 2753 
Q 2328 2753 2575 2939 
Q 2822 3125 2822 3475 
Q 2822 3834 2567 4026 
Q 2313 4219 1838 4219 
Q 1578 4219 1281 4162 
Q 984 4106 628 3988 
L 628 4550 
Q 988 4650 1302 4700 
Q 1616 4750 1894 4750 
Q 2613 4750 3031 4423 
Q 3450 4097 3450 3541 
Q 3450 3153 3228 2886 
Q 3006 2619 2597 2516 
z
" transform="scale(0.015625)"/>
       </defs>
       <use xlink:href="#DejaVuSans-43"/>
       <use xlink:href="#DejaVuSans-45" transform="translate(69.824219 0)"/>
       <use xlink:href="#DejaVuSans-53" transform="translate(133.007812 0)"/>
       <use xlink:href="#DejaVuSans-49" transform="translate(196.484375 0)"/>
       <use xlink:href="#DejaVuSans-20" transform="translate(225.976562 0)"/>
       <use xlink:href="#DejaVuSans-32" transform="translate(257.763672 0)"/>
       <use xlink:href="#DejaVuSans-30" transform="translate(321.386719 0)"/>
       <use xlink:href="#DejaVuSans-32" transform="translate(385.009766 0)"/>
       <use xlink:href="#DejaVuSans-33" transform="translate(448.632812 0)"/>
      </g>
     </g>
    </g>
    <g id="xtick_2">
     <g id="line2d_2">
      <g>
       <use xlink:href="#me9e3099d24" x="248.828337" y="422.3555" style="stroke: #000000; stroke-width: 0.8"/>
      </g>
     </g>
     <g id="text_2">
      <!-- EROI decline -->
      <g transform="translate(217.171306 436.953937) scale(0.1 -0.1)">
       <defs>
        <path id="DejaVuSans-52" d="M 2841 2188 
Q 3044 2119 3236 1894 
Q 3428 1669 3622 1275 
L 4263 0 
L 3584 0 
L 2988 1197 
Q 2756 1666 2539 1819 
Q 2322 1972 1947 1972 
L 1259 1972 
L 1259 0 
L 628 0 
L 628 4666 
L 2053 4666 
Q 2853 4666 3247 4331 
Q 3641 3997 3641 3322 
Q 3641 2881 3436 2590 
Q 3231 2300 2841 2188 
z
M 1259 4147 
L 1259 2491 
L 2053 2491 
Q 2509 2491 2742 2702 
Q 2975 2913 2975 3322 
Q 2975 3731 2742 3939 
Q 2509 4147 2053 4147 
L 1259 4147 
z
" transform="scale(0.015625)"/>
        <path id="DejaVuSans-4f" d="M 2522 4238 
Q 1834 4238 1429 3725 
Q 1025 3213 1025 2328 
Q 1025 1447 1429 934 
Q 1834 422 2522 422 
Q 3209 422 3611 934 
Q 4013 1447 4013 2328 
Q 4013 3213 3611 3725 
Q 3209 4238 2522 4238 
z
M 2522 4750 
Q 3503 4750 4090 4092 
Q 4678 3434 4678 2328 
Q 4678 1225 4090 567 
Q 3503 -91 2522 -91 
Q 1538 -91 948 565 
Q 359 1222 359 2328 
Q 359 3434 948 4092 
Q 1538 4750 2522 4750 
z
" transform="scale(0.015625)"/>
        <path id="DejaVuSans-64" d="M 2906 2969 
L 2906 4863 
L 3481 4863 
L 3481 0 
L 2906 0 
L 2906 525 
Q 2725 213 2448 61 
Q 2172 -91 1784 -91 
Q 1150 -91 751 415 
Q 353 922 353 1747 
Q 353 2572 751 3078 
Q 1150 3584 1784 3584 
Q 2172 3584 2448 3432 
Q 2725 3281 2906 2969 
z
M 947 1747 
Q 947 1113 1208 752 
Q 1469 391 1925 391 
Q 2381 391 2643 752 
Q 2906 1113 2906 1747 
Q 2906 2381 2643 2742 
Q 2381 3103 1925 3103 
Q 1469 3103 1208 2742 
Q 947 2381 947 1747 
z
" transform="scale(0.015625)"/>
        <path id="DejaVuSans-65" d="M 3597 1894 
L 3597 1613 
L 953 1613 
Q 991 1019 1311 708 
Q 1631 397 2203 397 
Q 2534 397 2845 478 
Q 3156 559 3463 722 
L 3463 178 
Q 3153 47 2828 -22 
Q 2503 -91 2169 -91 
Q 1331 -91 842 396 
Q 353 884 353 1716 
Q 353 2575 817 3079 
Q 1281 3584 2069 3584 
Q 2775 3584 3186 3129 
Q 3597 2675 3597 1894 
z
M 3022 2063 
Q 3016 2534 2758 2815 
Q 2500 3097 2075 3097 
Q 1594 3097 1305 2825 
Q 1016 2553 972 2059 
L 3022 2063 
z
" transform="scale(0.015625)"/>
        <path id="DejaVuSans-63" d="M 3122 3366 
L 3122 2828 
Q 2878 2963 2633 3030 
Q 2388 3097 2138 3097 
Q 1578 3097 1268 2742 
Q 959 2388 959 1747 
Q 959 1106 1268 751 
Q 1578 397 2138 397 
Q 2388 397 2633 464 
Q 2878 531 3122 666 
L 3122 134 
Q 2881 22 2623 -34 
Q 2366 -91 2075 -91 
Q 1284 -91 818 406 
Q 353 903 353 1747 
Q 353 2603 823 3093 
Q 1294 3584 2113 3584 
Q 2378 3584 2631 3529 
Q 2884 3475 3122 3366 
z
" transform="scale(0.015625)"/>
        <path id="DejaVuSans-6c" d="M 603 4863 
L 1178 4863 
L 1178 0 
L 603 0 
L 603 4863 
z
" transform="scale(0.015625)"/>
        <path id="DejaVuSans-69" d="M 603 3500 
L 1178 3500 
L 1178 0 
L 603 0 
L 603 3500 
z
M 603 4863 
L 1178 4863 
L 1178 4134 
L 603 4134 
L 603 4863 
z
" transform="scale(0.015625)"/>
        <path id="DejaVuSans-6e" d="M 3513 2113 
L 3513 0 
L 2938 0 
L 2938 2094 
Q 2938 2591 2744 2837 
Q 2550 3084 2163 3084 
Q 1697 3084 1428 2787 
Q 1159 2491 1159 1978 
L 1159 0 
L 581 0 
L 581 3500 
L 1159 3500 
L 1159 2956 
Q 1366 3272 1645 3428 
Q 1925 3584 2291 3584 
Q 2894 3584 3203 3211 
Q 3513 2838 3513 2113 
z
" transform="scale(0.015625)"/>
       </defs>
       <use xlink:href="#DejaVuSans-45"/>
       <use xlink:href="#DejaVuSans-52" transform="translate(63.183594 0)"/>
       <use xlink:href="#DejaVuSans-4f" transform="translate(132.666016 0)"/>
       <use xlink:href="#DejaVuSans-49" transform="translate(211.376953 0)"/>
       <use xlink:href="#DejaVuSans-20" transform="translate(240.869141 0)"/>
       <use xlink:href="#DejaVuSans-64" transform="translate(272.65625 0)"/>
       <use xlink:href="#DejaVuSans-65" transform="translate(336.132812 0)"/>
       <use xlink:href="#DejaVuSans-63" transform="translate(397.65625 0)"/>
       <use xlink:href="#DejaVuSans-6c" transform="translate(452.636719 0)"/>
       <use xlink:href="#DejaVuSans-69" transform="translate(480.419922 0)"/>
       <use xlink:href="#DejaVuSans-6e" transform="translate(508.203125 0)"/>
       <use xlink:href="#DejaVuSans-65" transform="translate(571.582031 0)"/>
      </g>
      <!-- (+1681) -->
      <g transform="translate(228.011931 448.15175) scale(0.1 -0.1)">
       <defs>
        <path id="DejaVuSans-28" d="M 1984 4856 
Q 1566 4138 1362 3434 
Q 1159 2731 1159 2009 
Q 1159 1288 1364 580 
Q 1569 -128 1984 -844 
L 1484 -844 
Q 1016 -109 783 600 
Q 550 1309 550 2009 
Q 550 2706 781 3412 
Q 1013 4119 1484 4856 
L 1984 4856 
z
" transform="scale(0.015625)"/>
        <path id="DejaVuSans-2b" d="M 2944 4013 
L 2944 2272 
L 4684 2272 
L 4684 1741 
L 2944 1741 
L 2944 0 
L 2419 0 
L 2419 1741 
L 678 1741 
L 678 2272 
L 2419 2272 
L 2419 4013 
L 2944 4013 
z
" transform="scale(0.015625)"/>
        <path id="DejaVuSans-31" d="M 794 531 
L 1825 531 
L 1825 4091 
L 703 3866 
L 703 4441 
L 1819 4666 
L 2450 4666 
L 2450 531 
L 3481 531 
L 3481 0 
L 794 0 
L 794 531 
z
" transform="scale(0.015625)"/>
        <path id="DejaVuSans-36" d="M 2113 2584 
Q 1688 2584 1439 2293 
Q 1191 2003 1191 1497 
Q 1191 994 1439 701 
Q 1688 409 2113 409 
Q 2538 409 2786 701 
Q 3034 994 3034 1497 
Q 3034 2003 2786 2293 
Q 2538 2584 2113 2584 
z
M 3366 4563 
L 3366 3988 
Q 3128 4100 2886 4159 
Q 2644 4219 2406 4219 
Q 1781 4219 1451 3797 
Q 1122 3375 1075 2522 
Q 1259 2794 1537 2939 
Q 1816 3084 2150 3084 
Q 2853 3084 3261 2657 
Q 3669 2231 3669 1497 
Q 3669 778 3244 343 
Q 2819 -91 2113 -91 
Q 1303 -91 875 529 
Q 447 1150 447 2328 
Q 447 3434 972 4092 
Q 1497 4750 2381 4750 
Q 2619 4750 2861 4703 
Q 3103 4656 3366 4563 
z
" transform="scale(0.015625)"/>
        <path id="DejaVuSans-38" d="M 2034 2216 
Q 1584 2216 1326 1975 
Q 1069 1734 1069 1313 
Q 1069 891 1326 650 
Q 1584 409 2034 409 
Q 2484 409 2743 651 
Q 3003 894 3003 1313 
Q 3003 1734 2745 1975 
Q 2488 2216 2034 2216 
z
M 1403 2484 
Q 997 2584 770 2862 
Q 544 3141 544 3541 
Q 544 4100 942 4425 
Q 1341 4750 2034 4750 
Q 2731 4750 3128 4425 
Q 3525 4100 3525 3541 
Q 3525 3141 3298 2862 
Q 3072 2584 2669 2484 
Q 3125 2378 3379 2068 
Q 3634 1759 3634 1313 
Q 3634 634 3220 271 
Q 2806 -91 2034 -91 
Q 1263 -91 848 271 
Q 434 634 434 1313 
Q 434 1759 690 2068 
Q 947 2378 1403 2484 
z
M 1172 3481 
Q 1172 3119 1398 2916 
Q 1625 2713 2034 2713 
Q 2441 2713 2670 2916 
Q 2900 3119 2900 3481 
Q 2900 3844 2670 4047 
Q 2441 4250 2034 4250 
Q 1625 4250 1398 4047 
Q 1172 3844 1172 3481 
z
" transform="scale(0.015625)"/>
        <path id="DejaVuSans-29" d="M 513 4856 
L 1013 4856 
Q 1481 4119 1714 3412 
Q 1947 2706 1947 2009 
Q 1947 1309 1714 600 
Q 1481 -109 1013 -844 
L 513 -844 
Q 928 -128 1133 580 
Q 1338 1288 1338 2009 
Q 1338 2731 1133 3434 
Q 928 4138 513 4856 
z
" transform="scale(0.015625)"/>
       </defs>
       <use xlink:href="#DejaVuSans-28"/>
       <use xlink:href="#DejaVuSans-2b" transform="translate(39.013672 0)"/>
       <use xlink:href="#DejaVuSans-31" transform="translate(122.802734 0)"/>
       <use xlink:href="#DejaVuSans-36" transform="translate(186.425781 0)"/>
       <use xlink:href="#DejaVuSans-38" transform="translate(250.048828 0)"/>
       <use xlink:href="#DejaVuSans-31" transform="translate(313.671875 0)"/>
       <use xlink:href="#DejaVuSans-29" transform="translate(377.294922 0)"/>
      </g>
     </g>
    </g>
    <g id="xtick_3">
     <g id="line2d_3">
      <g>
       <use xlink:href="#me9e3099d24" x="362.19981" y="422.3555" style="stroke: #000000; stroke-width: 0.8"/>
      </g>
     </g>
     <g id="text_3">
      <!-- Demand growth -->
      <g transform="translate(322.01231 436.953937) scale(0.1 -0.1)">
       <defs>
        <path id="DejaVuSans-44" d="M 1259 4147 
L 1259 519 
L 2022 519 
Q 2988 519 3436 956 
Q 3884 1394 3884 2338 
Q 3884 3275 3436 3711 
Q 2988 4147 2022 4147 
L 1259 4147 
z
M 628 4666 
L 1925 4666 
Q 3281 4666 3915 4102 
Q 4550 3538 4550 2338 
Q 4550 1131 3912 565 
Q 3275 0 1925 0 
L 628 0 
L 628 4666 
z
" transform="scale(0.015625)"/>
        <path id="DejaVuSans-6d" d="M 3328 2828 
Q 3544 3216 3844 3400 
Q 4144 3584 4550 3584 
Q 5097 3584 5394 3201 
Q 5691 2819 5691 2113 
L 5691 0 
L 5113 0 
L 5113 2094 
Q 5113 2597 4934 2840 
Q 4756 3084 4391 3084 
Q 3944 3084 3684 2787 
Q 3425 2491 3425 1978 
L 3425 0 
L 2847 0 
L 2847 2094 
Q 2847 2600 2669 2842 
Q 2491 3084 2119 3084 
Q 1678 3084 1418 2786 
Q 1159 2488 1159 1978 
L 1159 0 
L 581 0 
L 581 3500 
L 1159 3500 
L 1159 2956 
Q 1356 3278 1631 3431 
Q 1906 3584 2284 3584 
Q 2666 3584 2933 3390 
Q 3200 3197 3328 2828 
z
" transform="scale(0.015625)"/>
        <path id="DejaVuSans-61" d="M 2194 1759 
Q 1497 1759 1228 1600 
Q 959 1441 959 1056 
Q 959 750 1161 570 
Q 1363 391 1709 391 
Q 2188 391 2477 730 
Q 2766 1069 2766 1631 
L 2766 1759 
L 2194 1759 
z
M 3341 1997 
L 3341 0 
L 2766 0 
L 2766 531 
Q 2569 213 2275 61 
Q 1981 -91 1556 -91 
Q 1019 -91 701 211 
Q 384 513 384 1019 
Q 384 1609 779 1909 
Q 1175 2209 1959 2209 
L 2766 2209 
L 2766 2266 
Q 2766 2663 2505 2880 
Q 2244 3097 1772 3097 
Q 1472 3097 1187 3025 
Q 903 2953 641 2809 
L 641 3341 
Q 956 3463 1253 3523 
Q 1550 3584 1831 3584 
Q 2591 3584 2966 3190 
Q 3341 2797 3341 1997 
z
" transform="scale(0.015625)"/>
        <path id="DejaVuSans-67" d="M 2906 1791 
Q 2906 2416 2648 2759 
Q 2391 3103 1925 3103 
Q 1463 3103 1205 2759 
Q 947 2416 947 1791 
Q 947 1169 1205 825 
Q 1463 481 1925 481 
Q 2391 481 2648 825 
Q 2906 1169 2906 1791 
z
M 3481 434 
Q 3481 -459 3084 -895 
Q 2688 -1331 1869 -1331 
Q 1566 -1331 1297 -1286 
Q 1028 -1241 775 -1147 
L 775 -588 
Q 1028 -725 1275 -790 
Q 1522 -856 1778 -856 
Q 2344 -856 2625 -561 
Q 2906 -266 2906 331 
L 2906 616 
Q 2728 306 2450 153 
Q 2172 0 1784 0 
Q 1141 0 747 490 
Q 353 981 353 1791 
Q 353 2603 747 3093 
Q 1141 3584 1784 3584 
Q 2172 3584 2450 3431 
Q 2728 3278 2906 2969 
L 2906 3500 
L 3481 3500 
L 3481 434 
z
" transform="scale(0.015625)"/>
        <path id="DejaVuSans-72" d="M 2631 2963 
Q 2534 3019 2420 3045 
Q 2306 3072 2169 3072 
Q 1681 3072 1420 2755 
Q 1159 2438 1159 1844 
L 1159 0 
L 581 0 
L 581 3500 
L 1159 3500 
L 1159 2956 
Q 1341 3275 1631 3429 
Q 1922 3584 2338 3584 
Q 2397 3584 2469 3576 
Q 2541 3569 2628 3553 
L 2631 2963 
z
" transform="scale(0.015625)"/>
        <path id="DejaVuSans-6f" d="M 1959 3097 
Q 1497 3097 1228 2736 
Q 959 2375 959 1747 
Q 959 1119 1226 758 
Q 1494 397 1959 397 
Q 2419 397 2687 759 
Q 2956 1122 2956 1747 
Q 2956 2369 2687 2733 
Q 2419 3097 1959 3097 
z
M 1959 3584 
Q 2709 3584 3137 3096 
Q 3566 2609 3566 1747 
Q 3566 888 3137 398 
Q 2709 -91 1959 -91 
Q 1206 -91 779 398 
Q 353 888 353 1747 
Q 353 2609 779 3096 
Q 1206 3584 1959 3584 
z
" transform="scale(0.015625)"/>
        <path id="DejaVuSans-77" d="M 269 3500 
L 844 3500 
L 1563 769 
L 2278 3500 
L 2956 3500 
L 3675 769 
L 4391 3500 
L 4966 3500 
L 4050 0 
L 3372 0 
L 2619 2869 
L 1863 0 
L 1184 0 
L 269 3500 
z
" transform="scale(0.015625)"/>
        <path id="DejaVuSans-74" d="M 1172 4494 
L 1172 3500 
L 2356 3500 
L 2356 3053 
L 1172 3053 
L 1172 1153 
Q 1172 725 1289 603 
Q 1406 481 1766 481 
L 2356 481 
L 2356 0 
L 1766 0 
Q 1100 0 847 248 
Q 594 497 594 1153 
L 594 3053 
L 172 3053 
L 172 3500 
L 594 3500 
L 594 4494 
L 1172 4494 
z
" transform="scale(0.015625)"/>
        <path id="DejaVuSans-68" d="M 3513 2113 
L 3513 0 
L 2938 0 
L 2938 2094 
Q 2938 2591 2744 2837 
Q 2550 3084 2163 3084 
Q 1697 3084 1428 2787 
Q 1159 2491 1159 1978 
L 1159 0 
L 581 0 
L 581 4863 
L 1159 4863 
L 1159 2956 
Q 1366 3272 1645 3428 
Q 1925 3584 2291 3584 
Q 2894 3584 3203 3211 
Q 3513 2838 3513 2113 
z
" transform="scale(0.015625)"/>
       </defs>
       <use xlink:href="#DejaVuSans-44"/>
       <use xlink:href="#DejaVuSans-65" transform="translate(77.001953 0)"/>
       <use xlink:href="#DejaVuSans-6d" transform="translate(138.525391 0)"/>
       <use xlink:href="#DejaVuSans-61" transform="translate(235.9375 0)"/>
       <use xlink:href="#DejaVuSans-6e" transform="translate(297.216797 0)"/>
       <use xlink:href="#DejaVuSans-64" transform="translate(360.595703 0)"/>
       <use xlink:href="#DejaVuSans-20" transform="translate(424.072266 0)"/>
       <use xlink:href="#DejaVuSans-67" transform="translate(455.859375 0)"/>
       <use xlink:href="#DejaVuSans-72" transform="translate(519.335938 0)"/>
       <use xlink:href="#DejaVuSans-6f" transform="translate(558.199219 0)"/>
       <use xlink:href="#DejaVuSans-77" transform="translate(619.380859 0)"/>
       <use xlink:href="#DejaVuSans-74" transform="translate(701.167969 0)"/>
       <use xlink:href="#DejaVuSans-68" transform="translate(740.376953 0)"/>
      </g>
      <!-- (+1073) -->
      <g transform="translate(341.383404 448.15175) scale(0.1 -0.1)">
       <defs>
        <path id="DejaVuSans-37" d="M 525 4666 
L 3525 4666 
L 3525 4397 
L 1831 0 
L 1172 0 
L 2766 4134 
L 525 4134 
L 525 4666 
z
" transform="scale(0.015625)"/>
       </defs>
       <use xlink:href="#DejaVuSans-28"/>
       <use xlink:href="#DejaVuSans-2b" transform="translate(39.013672 0)"/>
       <use xlink:href="#DejaVuSans-31" transform="translate(122.802734 0)"/>
       <use xlink:href="#DejaVuSans-30" transform="translate(186.425781 0)"/>
       <use xlink:href="#DejaVuSans-37" transform="translate(250.048828 0)"/>
       <use xlink:href="#DejaVuSans-33" transform="translate(313.671875 0)"/>
       <use xlink:href="#DejaVuSans-29" transform="translate(377.294922 0)"/>
      </g>
     </g>
    </g>
    <g id="xtick_4">
     <g id="line2d_4">
      <g>
       <use xlink:href="#me9e3099d24" x="475.571284" y="422.3555" style="stroke: #000000; stroke-width: 0.8"/>
      </g>
     </g>
     <g id="text_4">
      <!-- R/P dynamics -->
      <g transform="translate(441.829096 436.953937) scale(0.1 -0.1)">
       <defs>
        <path id="DejaVuSans-2f" d="M 1625 4666 
L 2156 4666 
L 531 -594 
L 0 -594 
L 1625 4666 
z
" transform="scale(0.015625)"/>
        <path id="DejaVuSans-50" d="M 1259 4147 
L 1259 2394 
L 2053 2394 
Q 2494 2394 2734 2622 
Q 2975 2850 2975 3272 
Q 2975 3691 2734 3919 
Q 2494 4147 2053 4147 
L 1259 4147 
z
M 628 4666 
L 2053 4666 
Q 2838 4666 3239 4311 
Q 3641 3956 3641 3272 
Q 3641 2581 3239 2228 
Q 2838 1875 2053 1875 
L 1259 1875 
L 1259 0 
L 628 0 
L 628 4666 
z
" transform="scale(0.015625)"/>
        <path id="DejaVuSans-79" d="M 2059 -325 
Q 1816 -950 1584 -1140 
Q 1353 -1331 966 -1331 
L 506 -1331 
L 506 -850 
L 844 -850 
Q 1081 -850 1212 -737 
Q 1344 -625 1503 -206 
L 1606 56 
L 191 3500 
L 800 3500 
L 1894 763 
L 2988 3500 
L 3597 3500 
L 2059 -325 
z
" transform="scale(0.015625)"/>
        <path id="DejaVuSans-73" d="M 2834 3397 
L 2834 2853 
Q 2591 2978 2328 3040 
Q 2066 3103 1784 3103 
Q 1356 3103 1142 2972 
Q 928 2841 928 2578 
Q 928 2378 1081 2264 
Q 1234 2150 1697 2047 
L 1894 2003 
Q 2506 1872 2764 1633 
Q 3022 1394 3022 966 
Q 3022 478 2636 193 
Q 2250 -91 1575 -91 
Q 1294 -91 989 -36 
Q 684 19 347 128 
L 347 722 
Q 666 556 975 473 
Q 1284 391 1588 391 
Q 1994 391 2212 530 
Q 2431 669 2431 922 
Q 2431 1156 2273 1281 
Q 2116 1406 1581 1522 
L 1381 1569 
Q 847 1681 609 1914 
Q 372 2147 372 2553 
Q 372 3047 722 3315 
Q 1072 3584 1716 3584 
Q 2034 3584 2315 3537 
Q 2597 3491 2834 3397 
z
" transform="scale(0.015625)"/>
       </defs>
       <use xlink:href="#DejaVuSans-52"/>
       <use xlink:href="#DejaVuSans-2f" transform="translate(69.482422 0)"/>
       <use xlink:href="#DejaVuSans-50" transform="translate(103.173828 0)"/>
       <use xlink:href="#DejaVuSans-20" transform="translate(163.476562 0)"/>
       <use xlink:href="#DejaVuSans-64" transform="translate(195.263672 0)"/>
       <use xlink:href="#DejaVuSans-79" transform="translate(258.740234 0)"/>
       <use xlink:href="#DejaVuSans-6e" transform="translate(317.919922 0)"/>
       <use xlink:href="#DejaVuSans-61" transform="translate(381.298828 0)"/>
       <use xlink:href="#DejaVuSans-6d" transform="translate(442.578125 0)"/>
       <use xlink:href="#DejaVuSans-69" transform="translate(539.990234 0)"/>
       <use xlink:href="#DejaVuSans-63" transform="translate(567.773438 0)"/>
       <use xlink:href="#DejaVuSans-73" transform="translate(622.753906 0)"/>
      </g>
      <!-- (-610) -->
      <g transform="translate(460.322065 448.15175) scale(0.1 -0.1)">
       <defs>
        <path id="DejaVuSans-2d" d="M 313 2009 
L 1997 2009 
L 1997 1497 
L 313 1497 
L 313 2009 
z
" transform="scale(0.015625)"/>
       </defs>
       <use xlink:href="#DejaVuSans-28"/>
       <use xlink:href="#DejaVuSans-2d" transform="translate(39.013672 0)"/>
       <use xlink:href="#DejaVuSans-36" transform="translate(75.097656 0)"/>
       <use xlink:href="#DejaVuSans-31" transform="translate(138.720703 0)"/>
       <use xlink:href="#DejaVuSans-30" transform="translate(202.34375 0)"/>
       <use xlink:href="#DejaVuSans-29" transform="translate(265.966797 0)"/>
      </g>
     </g>
    </g>
    <g id="xtick_5">
     <g id="line2d_5">
      <g>
       <use xlink:href="#me9e3099d24" x="588.942757" y="422.3555" style="stroke: #000000; stroke-width: 0.8"/>
      </g>
     </g>
     <g id="text_5">
      <!-- Interaction / -->
      <g transform="translate(558.542757 436.953937) scale(0.1 -0.1)">
       <use xlink:href="#DejaVuSans-49"/>
       <use xlink:href="#DejaVuSans-6e" transform="translate(29.492188 0)"/>
       <use xlink:href="#DejaVuSans-74" transform="translate(92.871094 0)"/>
       <use xlink:href="#DejaVuSans-65" transform="translate(132.080078 0)"/>
       <use xlink:href="#DejaVuSans-72" transform="translate(193.603516 0)"/>
       <use xlink:href="#DejaVuSans-61" transform="translate(234.716797 0)"/>
       <use xlink:href="#DejaVuSans-63" transform="translate(295.996094 0)"/>
       <use xlink:href="#DejaVuSans-74" transform="translate(350.976562 0)"/>
       <use xlink:href="#DejaVuSans-69" transform="translate(390.185547 0)"/>
       <use xlink:href="#DejaVuSans-6f" transform="translate(417.96875 0)"/>
       <use xlink:href="#DejaVuSans-6e" transform="translate(479.150391 0)"/>
       <use xlink:href="#DejaVuSans-20" transform="translate(542.529297 0)"/>
       <use xlink:href="#DejaVuSans-2f" transform="translate(574.316406 0)"/>
      </g>
      <!-- residual (-226) -->
      <g transform="translate(552.295101 448.15175) scale(0.1 -0.1)">
       <defs>
        <path id="DejaVuSans-75" d="M 544 1381 
L 544 3500 
L 1119 3500 
L 1119 1403 
Q 1119 906 1312 657 
Q 1506 409 1894 409 
Q 2359 409 2629 706 
Q 2900 1003 2900 1516 
L 2900 3500 
L 3475 3500 
L 3475 0 
L 2900 0 
L 2900 538 
Q 2691 219 2414 64 
Q 2138 -91 1772 -91 
Q 1169 -91 856 284 
Q 544 659 544 1381 
z
M 1991 3584 
L 1991 3584 
z
" transform="scale(0.015625)"/>
       </defs>
       <use xlink:href="#DejaVuSans-72"/>
       <use xlink:href="#DejaVuSans-65" transform="translate(38.863281 0)"/>
       <use xlink:href="#DejaVuSans-73" transform="translate(100.386719 0)"/>
       <use xlink:href="#DejaVuSans-69" transform="translate(152.486328 0)"/>
       <use xlink:href="#DejaVuSans-64" transform="translate(180.269531 0)"/>
       <use xlink:href="#DejaVuSans-75" transform="translate(243.746094 0)"/>
       <use xlink:href="#DejaVuSans-61" transform="translate(307.125 0)"/>
       <use xlink:href="#DejaVuSans-6c" transform="translate(368.404297 0)"/>
       <use xlink:href="#DejaVuSans-20" transform="translate(396.1875 0)"/>
       <use xlink:href="#DejaVuSans-28" transform="translate(427.974609 0)"/>
       <use xlink:href="#DejaVuSans-2d" transform="translate(466.988281 0)"/>
       <use xlink:href="#DejaVuSans-32" transform="translate(503.072266 0)"/>
       <use xlink:href="#DejaVuSans-32" transform="translate(566.695312 0)"/>
       <use xlink:href="#DejaVuSans-36" transform="translate(630.318359 0)"/>
       <use xlink:href="#DejaVuSans-29" transform="translate(693.941406 0)"/>
      </g>
     </g>
    </g>
    <g id="xtick_6">
     <g id="line2d_6">
      <g>
       <use xlink:href="#me9e3099d24" x="702.31423" y="422.3555" style="stroke: #000000; stroke-width: 0.8"/>
      </g>
     </g>
     <g id="text_6">
      <!-- CESI 2050 -->
      <g transform="translate(676.700168 436.953937) scale(0.1 -0.1)">
       <defs>
        <path id="DejaVuSans-35" d="M 691 4666 
L 3169 4666 
L 3169 4134 
L 1269 4134 
L 1269 2991 
Q 1406 3038 1543 3061 
Q 1681 3084 1819 3084 
Q 2600 3084 3056 2656 
Q 3513 2228 3513 1497 
Q 3513 744 3044 326 
Q 2575 -91 1722 -91 
Q 1428 -91 1123 -41 
Q 819 9 494 109 
L 494 744 
Q 775 591 1075 516 
Q 1375 441 1709 441 
Q 2250 441 2565 725 
Q 2881 1009 2881 1497 
Q 2881 1984 2565 2268 
Q 2250 2553 1709 2553 
Q 1456 2553 1204 2497 
Q 953 2441 691 2322 
L 691 4666 
z
" transform="scale(0.015625)"/>
       </defs>
       <use xlink:href="#DejaVuSans-43"/>
       <use xlink:href="#DejaVuSans-45" transform="translate(69.824219 0)"/>
       <use xlink:href="#DejaVuSans-53" transform="translate(133.007812 0)"/>
       <use xlink:href="#DejaVuSans-49" transform="translate(196.484375 0)"/>
       <use xlink:href="#DejaVuSans-20" transform="translate(225.976562 0)"/>
       <use xlink:href="#DejaVuSans-32" transform="translate(257.763672 0)"/>
       <use xlink:href="#DejaVuSans-30" transform="translate(321.386719 0)"/>
       <use xlink:href="#DejaVuSans-35" transform="translate(385.009766 0)"/>
       <use xlink:href="#DejaVuSans-30" transform="translate(448.632812 0)"/>
      </g>
      <!-- (Central) -->
      <g transform="translate(680.207199 448.15175) scale(0.1 -0.1)">
       <use xlink:href="#DejaVuSans-28"/>
       <use xlink:href="#DejaVuSans-43" transform="translate(39.013672 0)"/>
       <use xlink:href="#DejaVuSans-65" transform="translate(108.837891 0)"/>
       <use xlink:href="#DejaVuSans-6e" transform="translate(170.361328 0)"/>
       <use xlink:href="#DejaVuSans-74" transform="translate(233.740234 0)"/>
       <use xlink:href="#DejaVuSans-72" transform="translate(272.949219 0)"/>
       <use xlink:href="#DejaVuSans-61" transform="translate(314.0625 0)"/>
       <use xlink:href="#DejaVuSans-6c" transform="translate(375.341797 0)"/>
       <use xlink:href="#DejaVuSans-29" transform="translate(403.125 0)"/>
      </g>
     </g>
    </g>
   </g>
   <g id="matplotlib.axis_2">
    <g id="ytick_1">
     <g id="line2d_7">
      <path d="M 57.230547 422.3555 
L 780.540547 422.3555 
" clip-path="url(#pa2269684f1)" style="fill: none; stroke-dasharray: 2.96,1.28; stroke-dashoffset: 0; stroke: #b0b0b0; stroke-opacity: 0.4; stroke-width: 0.8"/>
     </g>
     <g id="line2d_8">
      <defs>
       <path id="m699bdff3c4" d="M 0 0 
L -3.5 0 
" style="stroke: #000000; stroke-width: 0.8"/>
      </defs>
      <g>
       <use xlink:href="#m699bdff3c4" x="57.230547" y="422.3555" style="stroke: #000000; stroke-width: 0.8"/>
      </g>
     </g>
     <g id="text_7">
      <!-- 0 -->
      <g transform="translate(43.868047 426.154719) scale(0.1 -0.1)">
       <use xlink:href="#DejaVuSans-30"/>
      </g>
     </g>
    </g>
    <g id="ytick_2">
     <g id="line2d_9">
      <path d="M 57.230547 369.725711 
L 780.540547 369.725711 
" clip-path="url(#pa2269684f1)" style="fill: none; stroke-dasharray: 2.96,1.28; stroke-dashoffset: 0; stroke: #b0b0b0; stroke-opacity: 0.4; stroke-width: 0.8"/>
     </g>
     <g id="line2d_10">
      <g>
       <use xlink:href="#m699bdff3c4" x="57.230547" y="369.725711" style="stroke: #000000; stroke-width: 0.8"/>
      </g>
     </g>
     <g id="text_8">
      <!-- 500 -->
      <g transform="translate(31.143047 373.52493) scale(0.1 -0.1)">
       <use xlink:href="#DejaVuSans-35"/>
       <use xlink:href="#DejaVuSans-30" transform="translate(63.623047 0)"/>
       <use xlink:href="#DejaVuSans-30" transform="translate(127.246094 0)"/>
      </g>
     </g>
    </g>
    <g id="ytick_3">
     <g id="line2d_11">
      <path d="M 57.230547 317.095923 
L 780.540547 317.095923 
" clip-path="url(#pa2269684f1)" style="fill: none; stroke-dasharray: 2.96,1.28; stroke-dashoffset: 0; stroke: #b0b0b0; stroke-opacity: 0.4; stroke-width: 0.8"/>
     </g>
     <g id="line2d_12">
      <g>
       <use xlink:href="#m699bdff3c4" x="57.230547" y="317.095923" style="stroke: #000000; stroke-width: 0.8"/>
      </g>
     </g>
     <g id="text_9">
      <!-- 1000 -->
      <g transform="translate(24.780547 320.895142) scale(0.1 -0.1)">
       <use xlink:href="#DejaVuSans-31"/>
       <use xlink:href="#DejaVuSans-30" transform="translate(63.623047 0)"/>
       <use xlink:href="#DejaVuSans-30" transform="translate(127.246094 0)"/>
       <use xlink:href="#DejaVuSans-30" transform="translate(190.869141 0)"/>
      </g>
     </g>
    </g>
    <g id="ytick_4">
     <g id="line2d_13">
      <path d="M 57.230547 264.466134 
L 780.540547 264.466134 
" clip-path="url(#pa2269684f1)" style="fill: none; stroke-dasharray: 2.96,1.28; stroke-dashoffset: 0; stroke: #b0b0b0; stroke-opacity: 0.4; stroke-width: 0.8"/>
     </g>
     <g id="line2d_14">
      <g>
       <use xlink:href="#m699bdff3c4" x="57.230547" y="264.466134" style="stroke: #000000; stroke-width: 0.8"/>
      </g>
     </g>
     <g id="text_10">
      <!-- 1500 -->
      <g transform="translate(24.780547 268.265353) scale(0.1 -0.1)">
       <use xlink:href="#DejaVuSans-31"/>
       <use xlink:href="#DejaVuSans-35" transform="translate(63.623047 0)"/>
       <use xlink:href="#DejaVuSans-30" transform="translate(127.246094 0)"/>
       <use xlink:href="#DejaVuSans-30" transform="translate(190.869141 0)"/>
      </g>
     </g>
    </g>
    <g id="ytick_5">
     <g id="line2d_15">
      <path d="M 57.230547 211.836346 
L 780.540547 211.836346 
" clip-path="url(#pa2269684f1)" style="fill: none; stroke-dasharray: 2.96,1.28; stroke-dashoffset: 0; stroke: #b0b0b0; stroke-opacity: 0.4; stroke-width: 0.8"/>
     </g>
     <g id="line2d_16">
      <g>
       <use xlink:href="#m699bdff3c4" x="57.230547" y="211.836346" style="stroke: #000000; stroke-width: 0.8"/>
      </g>
     </g>
     <g id="text_11">
      <!-- 2000 -->
      <g transform="translate(24.780547 215.635564) scale(0.1 -0.1)">
       <use xlink:href="#DejaVuSans-32"/>
       <use xlink:href="#DejaVuSans-30" transform="translate(63.623047 0)"/>
       <use xlink:href="#DejaVuSans-30" transform="translate(127.246094 0)"/>
       <use xlink:href="#DejaVuSans-30" transform="translate(190.869141 0)"/>
      </g>
     </g>
    </g>
    <g id="ytick_6">
     <g id="line2d_17">
      <path d="M 57.230547 159.206557 
L 780.540547 159.206557 
" clip-path="url(#pa2269684f1)" style="fill: none; stroke-dasharray: 2.96,1.28; stroke-dashoffset: 0; stroke: #b0b0b0; stroke-opacity: 0.4; stroke-width: 0.8"/>
     </g>
     <g id="line2d_18">
      <g>
       <use xlink:href="#m699bdff3c4" x="57.230547" y="159.206557" style="stroke: #000000; stroke-width: 0.8"/>
      </g>
     </g>
     <g id="text_12">
      <!-- 2500 -->
      <g transform="translate(24.780547 163.005776) scale(0.1 -0.1)">
       <use xlink:href="#DejaVuSans-32"/>
       <use xlink:href="#DejaVuSans-35" transform="translate(63.623047 0)"/>
       <use xlink:href="#DejaVuSans-30" transform="translate(127.246094 0)"/>
       <use xlink:href="#DejaVuSans-30" transform="translate(190.869141 0)"/>
      </g>
     </g>
    </g>
    <g id="ytick_7">
     <g id="line2d_19">
      <path d="M 57.230547 106.576769 
L 780.540547 106.576769 
" clip-path="url(#pa2269684f1)" style="fill: none; stroke-dasharray: 2.96,1.28; stroke-dashoffset: 0; stroke: #b0b0b0; stroke-opacity: 0.4; stroke-width: 0.8"/>
     </g>
     <g id="line2d_20">
      <g>
       <use xlink:href="#m699bdff3c4" x="57.230547" y="106.576769" style="stroke: #000000; stroke-width: 0.8"/>
      </g>
     </g>
     <g id="text_13">
      <!-- 3000 -->
      <g transform="translate(24.780547 110.375987) scale(0.1 -0.1)">
       <use xlink:href="#DejaVuSans-33"/>
       <use xlink:href="#DejaVuSans-30" transform="translate(63.623047 0)"/>
       <use xlink:href="#DejaVuSans-30" transform="translate(127.246094 0)"/>
       <use xlink:href="#DejaVuSans-30" transform="translate(190.869141 0)"/>
      </g>
     </g>
    </g>
    <g id="ytick_8">
     <g id="line2d_21">
      <path d="M 57.230547 53.94698 
L 780.540547 53.94698 
" clip-path="url(#pa2269684f1)" style="fill: none; stroke-dasharray: 2.96,1.28; stroke-dashoffset: 0; stroke: #b0b0b0; stroke-opacity: 0.4; stroke-width: 0.8"/>
     </g>
     <g id="line2d_22">
      <g>
       <use xlink:href="#m699bdff3c4" x="57.230547" y="53.94698" style="stroke: #000000; stroke-width: 0.8"/>
      </g>
     </g>
     <g id="text_14">
      <!-- 3500 -->
      <g transform="translate(24.780547 57.746199) scale(0.1 -0.1)">
       <use xlink:href="#DejaVuSans-33"/>
       <use xlink:href="#DejaVuSans-35" transform="translate(63.623047 0)"/>
       <use xlink:href="#DejaVuSans-30" transform="translate(127.246094 0)"/>
       <use xlink:href="#DejaVuSans-30" transform="translate(190.869141 0)"/>
      </g>
     </g>
    </g>
    <g id="text_15">
     <!-- CESI (1980 = 100) -->
     <g transform="translate(18.492891 283.125578) rotate(-90) scale(0.11 -0.11)">
      <defs>
       <path id="DejaVuSans-39" d="M 703 97 
L 703 672 
Q 941 559 1184 500 
Q 1428 441 1663 441 
Q 2288 441 2617 861 
Q 2947 1281 2994 2138 
Q 2813 1869 2534 1725 
Q 2256 1581 1919 1581 
Q 1219 1581 811 2004 
Q 403 2428 403 3163 
Q 403 3881 828 4315 
Q 1253 4750 1959 4750 
Q 2769 4750 3195 4129 
Q 3622 3509 3622 2328 
Q 3622 1225 3098 567 
Q 2575 -91 1691 -91 
Q 1453 -91 1209 -44 
Q 966 3 703 97 
z
M 1959 2075 
Q 2384 2075 2632 2365 
Q 2881 2656 2881 3163 
Q 2881 3666 2632 3958 
Q 2384 4250 1959 4250 
Q 1534 4250 1286 3958 
Q 1038 3666 1038 3163 
Q 1038 2656 1286 2365 
Q 1534 2075 1959 2075 
z
" transform="scale(0.015625)"/>
       <path id="DejaVuSans-3d" d="M 678 2906 
L 4684 2906 
L 4684 2381 
L 678 2381 
L 678 2906 
z
M 678 1631 
L 4684 1631 
L 4684 1100 
L 678 1100 
L 678 1631 
z
" transform="scale(0.015625)"/>
      </defs>
      <use xlink:href="#DejaVuSans-43"/>
      <use xlink:href="#DejaVuSans-45" transform="translate(69.824219 0)"/>
      <use xlink:href="#DejaVuSans-53" transform="translate(133.007812 0)"/>
      <use xlink:href="#DejaVuSans-49" transform="translate(196.484375 0)"/>
      <use xlink:href="#DejaVuSans-20" transform="translate(225.976562 0)"/>
      <use xlink:href="#DejaVuSans-28" transform="translate(257.763672 0)"/>
      <use xlink:href="#DejaVuSans-31" transform="translate(296.777344 0)"/>
      <use xlink:href="#DejaVuSans-39" transform="translate(360.400391 0)"/>
      <use xlink:href="#DejaVuSans-38" transform="translate(424.023438 0)"/>
      <use xlink:href="#DejaVuSans-30" transform="translate(487.646484 0)"/>
      <use xlink:href="#DejaVuSans-20" transform="translate(551.269531 0)"/>
      <use xlink:href="#DejaVuSans-3d" transform="translate(583.056641 0)"/>
      <use xlink:href="#DejaVuSans-20" transform="translate(666.845703 0)"/>
      <use xlink:href="#DejaVuSans-31" transform="translate(698.632812 0)"/>
      <use xlink:href="#DejaVuSans-30" transform="translate(762.255859 0)"/>
      <use xlink:href="#DejaVuSans-30" transform="translate(825.878906 0)"/>
      <use xlink:href="#DejaVuSans-29" transform="translate(889.501953 0)"/>
     </g>
    </g>
   </g>
   <g id="patch_3">
    <path d="M 90.108274 422.3555 
L 180.805453 422.3555 
L 180.805453 357.936639 
L 90.108274 357.936639 
z
" clip-path="url(#pa2269684f1)" style="fill: #4c72b0; stroke: #000000; stroke-width: 0.8; stroke-linejoin: miter"/>
   </g>
   <g id="patch_4">
    <path d="M 203.479748 357.936639 
L 294.176926 357.936639 
L 294.176926 181.019184 
L 203.479748 181.019184 
z
" clip-path="url(#pa2269684f1)" style="fill: #c44e52; stroke: #000000; stroke-width: 0.8; stroke-linejoin: miter"/>
   </g>
   <g id="patch_5">
    <path d="M 316.851221 181.019184 
L 407.5484 181.019184 
L 407.5484 68.070394 
L 316.851221 68.070394 
z
" clip-path="url(#pa2269684f1)" style="fill: #c44e52; stroke: #000000; stroke-width: 0.8; stroke-linejoin: miter"/>
   </g>
   <g id="patch_6">
    <path d="M 430.222694 132.321998 
L 520.919873 132.321998 
L 520.919873 68.070394 
L 430.222694 68.070394 
z
" clip-path="url(#pa2269684f1)" style="fill: #55a868; stroke: #000000; stroke-width: 0.8; stroke-linejoin: miter"/>
   </g>
   <g id="patch_7">
    <path d="M 543.594168 156.162555 
L 634.291346 156.162555 
L 634.291346 132.321998 
L 543.594168 132.321998 
z
" clip-path="url(#pa2269684f1)" style="fill: #55a868; stroke: #000000; stroke-width: 0.8; stroke-linejoin: miter"/>
   </g>
   <g id="patch_8">
    <path d="M 656.965641 422.3555 
L 747.66282 422.3555 
L 747.66282 156.162555 
L 656.965641 156.162555 
z
" clip-path="url(#pa2269684f1)" style="fill: #4c72b0; stroke: #000000; stroke-width: 0.8; stroke-linejoin: miter"/>
   </g>
   <g id="line2d_23">
    <path d="M 203.479748 181.019184 
L 294.176926 181.019184 
" clip-path="url(#pa2269684f1)" style="fill: none; stroke-dasharray: 0.9,1.485; stroke-dashoffset: 0; stroke: #808080; stroke-width: 0.9"/>
   </g>
   <g id="line2d_24">
    <path d="M 316.851221 68.070394 
L 407.5484 68.070394 
" clip-path="url(#pa2269684f1)" style="fill: none; stroke-dasharray: 0.9,1.485; stroke-dashoffset: 0; stroke: #808080; stroke-width: 0.9"/>
   </g>
   <g id="line2d_25">
    <path d="M 430.222694 132.321998 
L 520.919873 132.321998 
" clip-path="url(#pa2269684f1)" style="fill: none; stroke-dasharray: 0.9,1.485; stroke-dashoffset: 0; stroke: #808080; stroke-width: 0.9"/>
   </g>
   <g id="line2d_26">
    <path d="M 543.594168 156.162555 
L 634.291346 156.162555 
" clip-path="url(#pa2269684f1)" style="fill: none; stroke-dasharray: 0.9,1.485; stroke-dashoffset: 0; stroke: #808080; stroke-width: 0.9"/>
   </g>
   <g id="line2d_27">
    <path d="M 180.805453 357.936639 
L 203.479748 357.936639 
" clip-path="url(#pa2269684f1)" style="fill: none; stroke-dasharray: 0.9,1.485; stroke-dashoffset: 0; stroke: #808080; stroke-width: 0.9"/>
   </g>
   <g id="patch_9">
    <path d="M 57.230547 422.3555 
L 57.230547 41.7555 
" style="fill: none; stroke: #000000; stroke-width: 0.8; stroke-linejoin: miter; stroke-linecap: square"/>
   </g>
   <g id="patch_10">
    <path d="M 780.540547 422.3555 
L 780.540547 41.7555 
" style="fill: none; stroke: #000000; stroke-width: 0.8; stroke-linejoin: miter; stroke-linecap: square"/>
   </g>
   <g id="patch_11">
    <path d="M 57.230547 422.3555 
L 780.540547 422.3555 
" style="fill: none; stroke: #000000; stroke-width: 0.8; stroke-linejoin: miter; stroke-linecap: square"/>
   </g>
   <g id="patch_12">
    <path d="M 57.230547 41.7555 
L 780.540547 41.7555 
" style="fill: none; stroke: #000000; stroke-width: 0.8; stroke-linejoin: miter; stroke-linecap: square"/>
   </g>
   <g id="text_16">
    <!-- 612 -->
    <g transform="translate(123.976473 353.726256) scale(0.11 -0.11)">
     <defs>
      <path id="DejaVuSans-Bold-36" d="M 2316 2303 
Q 2000 2303 1842 2098 
Q 1684 1894 1684 1484 
Q 1684 1075 1842 870 
Q 2000 666 2316 666 
Q 2634 666 2792 870 
Q 2950 1075 2950 1484 
Q 2950 1894 2792 2098 
Q 2634 2303 2316 2303 
z
M 3803 4544 
L 3803 3681 
Q 3506 3822 3243 3889 
Q 2981 3956 2731 3956 
Q 2194 3956 1894 3657 
Q 1594 3359 1544 2772 
Q 1750 2925 1990 3001 
Q 2231 3078 2516 3078 
Q 3231 3078 3670 2659 
Q 4109 2241 4109 1563 
Q 4109 813 3618 361 
Q 3128 -91 2303 -91 
Q 1394 -91 895 523 
Q 397 1138 397 2266 
Q 397 3422 980 4083 
Q 1563 4744 2578 4744 
Q 2900 4744 3203 4694 
Q 3506 4644 3803 4544 
z
" transform="scale(0.015625)"/>
      <path id="DejaVuSans-Bold-31" d="M 750 831 
L 1813 831 
L 1813 3847 
L 722 3622 
L 722 4441 
L 1806 4666 
L 2950 4666 
L 2950 831 
L 4013 831 
L 4013 0 
L 750 0 
L 750 831 
z
" transform="scale(0.015625)"/>
      <path id="DejaVuSans-Bold-32" d="M 1844 884 
L 3897 884 
L 3897 0 
L 506 0 
L 506 884 
L 2209 2388 
Q 2438 2594 2547 2791 
Q 2656 2988 2656 3200 
Q 2656 3528 2436 3728 
Q 2216 3928 1850 3928 
Q 1569 3928 1234 3808 
Q 900 3688 519 3450 
L 519 4475 
Q 925 4609 1322 4679 
Q 1719 4750 2100 4750 
Q 2938 4750 3402 4381 
Q 3866 4013 3866 3353 
Q 3866 2972 3669 2642 
Q 3472 2313 2841 1759 
L 1844 884 
z
" transform="scale(0.015625)"/>
     </defs>
     <use xlink:href="#DejaVuSans-Bold-36"/>
     <use xlink:href="#DejaVuSans-Bold-31" transform="translate(69.580078 0)"/>
     <use xlink:href="#DejaVuSans-Bold-32" transform="translate(139.160156 0)"/>
    </g>
   </g>
   <g id="text_17">
    <!-- +1681 -->
    <g transform="translate(228.912321 176.8088) scale(0.11 -0.11)">
     <defs>
      <path id="DejaVuSans-Bold-2b" d="M 3053 4013 
L 3053 2375 
L 4684 2375 
L 4684 1638 
L 3053 1638 
L 3053 0 
L 2309 0 
L 2309 1638 
L 678 1638 
L 678 2375 
L 2309 2375 
L 2309 4013 
L 3053 4013 
z
" transform="scale(0.015625)"/>
      <path id="DejaVuSans-Bold-38" d="M 2228 2088 
Q 1891 2088 1709 1903 
Q 1528 1719 1528 1375 
Q 1528 1031 1709 848 
Q 1891 666 2228 666 
Q 2563 666 2741 848 
Q 2919 1031 2919 1375 
Q 2919 1722 2741 1905 
Q 2563 2088 2228 2088 
z
M 1350 2484 
Q 925 2613 709 2878 
Q 494 3144 494 3541 
Q 494 4131 934 4440 
Q 1375 4750 2228 4750 
Q 3075 4750 3515 4442 
Q 3956 4134 3956 3541 
Q 3956 3144 3739 2878 
Q 3522 2613 3097 2484 
Q 3572 2353 3814 2058 
Q 4056 1763 4056 1313 
Q 4056 619 3595 264 
Q 3134 -91 2228 -91 
Q 1319 -91 855 264 
Q 391 619 391 1313 
Q 391 1763 633 2058 
Q 875 2353 1350 2484 
z
M 1631 3419 
Q 1631 3141 1786 2991 
Q 1941 2841 2228 2841 
Q 2509 2841 2662 2991 
Q 2816 3141 2816 3419 
Q 2816 3697 2662 3845 
Q 2509 3994 2228 3994 
Q 1941 3994 1786 3844 
Q 1631 3694 1631 3419 
z
" transform="scale(0.015625)"/>
     </defs>
     <use xlink:href="#DejaVuSans-Bold-2b"/>
     <use xlink:href="#DejaVuSans-Bold-31" transform="translate(83.789062 0)"/>
     <use xlink:href="#DejaVuSans-Bold-36" transform="translate(153.369141 0)"/>
     <use xlink:href="#DejaVuSans-Bold-38" transform="translate(222.949219 0)"/>
     <use xlink:href="#DejaVuSans-Bold-31" transform="translate(292.529297 0)"/>
    </g>
   </g>
   <g id="text_18">
    <!-- +1073 -->
    <g transform="translate(342.283795 63.860011) scale(0.11 -0.11)">
     <defs>
      <path id="DejaVuSans-Bold-30" d="M 2944 2338 
Q 2944 3213 2780 3570 
Q 2616 3928 2228 3928 
Q 1841 3928 1675 3570 
Q 1509 3213 1509 2338 
Q 1509 1453 1675 1090 
Q 1841 728 2228 728 
Q 2613 728 2778 1090 
Q 2944 1453 2944 2338 
z
M 4147 2328 
Q 4147 1169 3647 539 
Q 3147 -91 2228 -91 
Q 1306 -91 806 539 
Q 306 1169 306 2328 
Q 306 3491 806 4120 
Q 1306 4750 2228 4750 
Q 3147 4750 3647 4120 
Q 4147 3491 4147 2328 
z
" transform="scale(0.015625)"/>
      <path id="DejaVuSans-Bold-37" d="M 428 4666 
L 3944 4666 
L 3944 3988 
L 2125 0 
L 953 0 
L 2675 3781 
L 428 3781 
L 428 4666 
z
" transform="scale(0.015625)"/>
      <path id="DejaVuSans-Bold-33" d="M 2981 2516 
Q 3453 2394 3698 2092 
Q 3944 1791 3944 1325 
Q 3944 631 3412 270 
Q 2881 -91 1863 -91 
Q 1503 -91 1142 -33 
Q 781 25 428 141 
L 428 1069 
Q 766 900 1098 814 
Q 1431 728 1753 728 
Q 2231 728 2486 893 
Q 2741 1059 2741 1369 
Q 2741 1688 2480 1852 
Q 2219 2016 1709 2016 
L 1228 2016 
L 1228 2791 
L 1734 2791 
Q 2188 2791 2409 2933 
Q 2631 3075 2631 3366 
Q 2631 3634 2415 3781 
Q 2200 3928 1806 3928 
Q 1516 3928 1219 3862 
Q 922 3797 628 3669 
L 628 4550 
Q 984 4650 1334 4700 
Q 1684 4750 2022 4750 
Q 2931 4750 3382 4451 
Q 3834 4153 3834 3553 
Q 3834 3144 3618 2883 
Q 3403 2622 2981 2516 
z
" transform="scale(0.015625)"/>
     </defs>
     <use xlink:href="#DejaVuSans-Bold-2b"/>
     <use xlink:href="#DejaVuSans-Bold-31" transform="translate(83.789062 0)"/>
     <use xlink:href="#DejaVuSans-Bold-30" transform="translate(153.369141 0)"/>
     <use xlink:href="#DejaVuSans-Bold-37" transform="translate(222.949219 0)"/>
     <use xlink:href="#DejaVuSans-Bold-33" transform="translate(292.529297 0)"/>
    </g>
   </g>
   <g id="text_19">
    <!-- -610 -->
    <g transform="translate(461.808393 63.860011) scale(0.11 -0.11)">
     <defs>
      <path id="DejaVuSans-Bold-2d" d="M 347 2297 
L 2309 2297 
L 2309 1388 
L 347 1388 
L 347 2297 
z
" transform="scale(0.015625)"/>
     </defs>
     <use xlink:href="#DejaVuSans-Bold-2d"/>
     <use xlink:href="#DejaVuSans-Bold-36" transform="translate(41.503906 0)"/>
     <use xlink:href="#DejaVuSans-Bold-31" transform="translate(111.083984 0)"/>
     <use xlink:href="#DejaVuSans-Bold-30" transform="translate(180.664062 0)"/>
    </g>
   </g>
   <g id="text_20">
    <!-- -226 -->
    <g transform="translate(575.179866 128.111615) scale(0.11 -0.11)">
     <use xlink:href="#DejaVuSans-Bold-2d"/>
     <use xlink:href="#DejaVuSans-Bold-32" transform="translate(41.503906 0)"/>
     <use xlink:href="#DejaVuSans-Bold-32" transform="translate(111.083984 0)"/>
     <use xlink:href="#DejaVuSans-Bold-36" transform="translate(180.664062 0)"/>
    </g>
   </g>
   <g id="text_21">
    <!-- 2529 -->
    <g transform="translate(687.007043 151.952172) scale(0.11 -0.11)">
     <defs>
      <path id="DejaVuSans-Bold-35" d="M 678 4666 
L 3669 4666 
L 3669 3781 
L 1638 3781 
L 1638 3059 
Q 1775 3097 1914 3117 
Q 2053 3138 2203 3138 
Q 3056 3138 3531 2711 
Q 4006 2284 4006 1522 
Q 4006 766 3489 337 
Q 2972 -91 2053 -91 
Q 1656 -91 1267 -14 
Q 878 63 494 219 
L 494 1166 
Q 875 947 1217 837 
Q 1559 728 1863 728 
Q 2300 728 2551 942 
Q 2803 1156 2803 1522 
Q 2803 1891 2551 2103 
Q 2300 2316 1863 2316 
Q 1603 2316 1309 2248 
Q 1016 2181 678 2041 
L 678 4666 
z
" transform="scale(0.015625)"/>
      <path id="DejaVuSans-Bold-39" d="M 641 103 
L 641 966 
Q 928 831 1190 764 
Q 1453 697 1709 697 
Q 2247 697 2547 995 
Q 2847 1294 2900 1881 
Q 2688 1725 2447 1647 
Q 2206 1569 1925 1569 
Q 1209 1569 770 1986 
Q 331 2403 331 3084 
Q 331 3838 820 4291 
Q 1309 4744 2131 4744 
Q 3044 4744 3544 4128 
Q 4044 3513 4044 2388 
Q 4044 1231 3459 570 
Q 2875 -91 1856 -91 
Q 1528 -91 1228 -42 
Q 928 6 641 103 
z
M 2125 2350 
Q 2441 2350 2600 2554 
Q 2759 2759 2759 3169 
Q 2759 3575 2600 3781 
Q 2441 3988 2125 3988 
Q 1809 3988 1650 3781 
Q 1491 3575 1491 3169 
Q 1491 2759 1650 2554 
Q 1809 2350 2125 2350 
z
" transform="scale(0.015625)"/>
     </defs>
     <use xlink:href="#DejaVuSans-Bold-32"/>
     <use xlink:href="#DejaVuSans-Bold-35" transform="translate(69.580078 0)"/>
     <use xlink:href="#DejaVuSans-Bold-32" transform="translate(139.160156 0)"/>
     <use xlink:href="#DejaVuSans-Bold-39" transform="translate(208.740234 0)"/>
    </g>
   </g>
   <g id="text_22">
    <!-- R3 — Mechanism attribution of the Central 2024–2050 CESI rise -->
    <g transform="translate(226.503984 16.318125) scale(0.12 -0.12)">
     <defs>
      <path id="DejaVuSans-2014" d="M 313 1978 
L 6088 1978 
L 6088 1528 
L 313 1528 
L 313 1978 
z
" transform="scale(0.015625)"/>
      <path id="DejaVuSans-4d" d="M 628 4666 
L 1569 4666 
L 2759 1491 
L 3956 4666 
L 4897 4666 
L 4897 0 
L 4281 0 
L 4281 4097 
L 3078 897 
L 2444 897 
L 1241 4097 
L 1241 0 
L 628 0 
L 628 4666 
z
" transform="scale(0.015625)"/>
      <path id="DejaVuSans-62" d="M 3116 1747 
Q 3116 2381 2855 2742 
Q 2594 3103 2138 3103 
Q 1681 3103 1420 2742 
Q 1159 2381 1159 1747 
Q 1159 1113 1420 752 
Q 1681 391 2138 391 
Q 2594 391 2855 752 
Q 3116 1113 3116 1747 
z
M 1159 2969 
Q 1341 3281 1617 3432 
Q 1894 3584 2278 3584 
Q 2916 3584 3314 3078 
Q 3713 2572 3713 1747 
Q 3713 922 3314 415 
Q 2916 -91 2278 -91 
Q 1894 -91 1617 61 
Q 1341 213 1159 525 
L 1159 0 
L 581 0 
L 581 4863 
L 1159 4863 
L 1159 2969 
z
" transform="scale(0.015625)"/>
      <path id="DejaVuSans-66" d="M 2375 4863 
L 2375 4384 
L 1825 4384 
Q 1516 4384 1395 4259 
Q 1275 4134 1275 3809 
L 1275 3500 
L 2222 3500 
L 2222 3053 
L 1275 3053 
L 1275 0 
L 697 0 
L 697 3053 
L 147 3053 
L 147 3500 
L 697 3500 
L 697 3744 
Q 697 4328 969 4595 
Q 1241 4863 1831 4863 
L 2375 4863 
z
" transform="scale(0.015625)"/>
      <path id="DejaVuSans-34" d="M 2419 4116 
L 825 1625 
L 2419 1625 
L 2419 4116 
z
M 2253 4666 
L 3047 4666 
L 3047 1625 
L 3713 1625 
L 3713 1100 
L 3047 1100 
L 3047 0 
L 2419 0 
L 2419 1100 
L 313 1100 
L 313 1709 
L 2253 4666 
z
" transform="scale(0.015625)"/>
      <path id="DejaVuSans-2013" d="M 313 1978 
L 2888 1978 
L 2888 1528 
L 313 1528 
L 313 1978 
z
" transform="scale(0.015625)"/>
     </defs>
     <use xlink:href="#DejaVuSans-52"/>
     <use xlink:href="#DejaVuSans-33" transform="translate(69.482422 0)"/>
     <use xlink:href="#DejaVuSans-20" transform="translate(133.105469 0)"/>
     <use xlink:href="#DejaVuSans-2014" transform="translate(164.892578 0)"/>
     <use xlink:href="#DejaVuSans-20" transform="translate(264.892578 0)"/>
     <use xlink:href="#DejaVuSans-4d" transform="translate(296.679688 0)"/>
     <use xlink:href="#DejaVuSans-65" transform="translate(382.958984 0)"/>
     <use xlink:href="#DejaVuSans-63" transform="translate(444.482422 0)"/>
     <use xlink:href="#DejaVuSans-68" transform="translate(499.462891 0)"/>
     <use xlink:href="#DejaVuSans-61" transform="translate(562.841797 0)"/>
     <use xlink:href="#DejaVuSans-6e" transform="translate(624.121094 0)"/>
     <use xlink:href="#DejaVuSans-69" transform="translate(687.5 0)"/>
     <use xlink:href="#DejaVuSans-73" transform="translate(715.283203 0)"/>
     <use xlink:href="#DejaVuSans-6d" transform="translate(767.382812 0)"/>
     <use xlink:href="#DejaVuSans-20" transform="translate(864.794922 0)"/>
     <use xlink:href="#DejaVuSans-61" transform="translate(896.582031 0)"/>
     <use xlink:href="#DejaVuSans-74" transform="translate(957.861328 0)"/>
     <use xlink:href="#DejaVuSans-74" transform="translate(997.070312 0)"/>
     <use xlink:href="#DejaVuSans-72" transform="translate(1036.279297 0)"/>
     <use xlink:href="#DejaVuSans-69" transform="translate(1077.392578 0)"/>
     <use xlink:href="#DejaVuSans-62" transform="translate(1105.175781 0)"/>
     <use xlink:href="#DejaVuSans-75" transform="translate(1168.652344 0)"/>
     <use xlink:href="#DejaVuSans-74" transform="translate(1232.03125 0)"/>
     <use xlink:href="#DejaVuSans-69" transform="translate(1271.240234 0)"/>
     <use xlink:href="#DejaVuSans-6f" transform="translate(1299.023438 0)"/>
     <use xlink:href="#DejaVuSans-6e" transform="translate(1360.205078 0)"/>
     <use xlink:href="#DejaVuSans-20" transform="translate(1423.583984 0)"/>
     <use xlink:href="#DejaVuSans-6f" transform="translate(1455.371094 0)"/>
     <use xlink:href="#DejaVuSans-66" transform="translate(1516.552734 0)"/>
     <use xlink:href="#DejaVuSans-20" transform="translate(1551.757812 0)"/>
     <use xlink:href="#DejaVuSans-74" transform="translate(1583.544922 0)"/>
     <use xlink:href="#DejaVuSans-68" transform="translate(1622.753906 0)"/>
     <use xlink:href="#DejaVuSans-65" transform="translate(1686.132812 0)"/>
     <use xlink:href="#DejaVuSans-20" transform="translate(1747.65625 0)"/>
     <use xlink:href="#DejaVuSans-43" transform="translate(1779.443359 0)"/>
     <use xlink:href="#DejaVuSans-65" transform="translate(1849.267578 0)"/>
     <use xlink:href="#DejaVuSans-6e" transform="translate(1910.791016 0)"/>
     <use xlink:href="#DejaVuSans-74" transform="translate(1974.169922 0)"/>
     <use xlink:href="#DejaVuSans-72" transform="translate(2013.378906 0)"/>
     <use xlink:href="#DejaVuSans-61" transform="translate(2054.492188 0)"/>
     <use xlink:href="#DejaVuSans-6c" transform="translate(2115.771484 0)"/>
     <use xlink:href="#DejaVuSans-20" transform="translate(2143.554688 0)"/>
     <use xlink:href="#DejaVuSans-32" transform="translate(2175.341797 0)"/>
     <use xlink:href="#DejaVuSans-30" transform="translate(2238.964844 0)"/>
     <use xlink:href="#DejaVuSans-32" transform="translate(2302.587891 0)"/>
     <use xlink:href="#DejaVuSans-34" transform="translate(2366.210938 0)"/>
     <use xlink:href="#DejaVuSans-2013" transform="translate(2429.833984 0)"/>
     <use xlink:href="#DejaVuSans-32" transform="translate(2479.833984 0)"/>
     <use xlink:href="#DejaVuSans-30" transform="translate(2543.457031 0)"/>
     <use xlink:href="#DejaVuSans-35" transform="translate(2607.080078 0)"/>
     <use xlink:href="#DejaVuSans-30" transform="translate(2670.703125 0)"/>
     <use xlink:href="#DejaVuSans-20" transform="translate(2734.326172 0)"/>
     <use xlink:href="#DejaVuSans-43" transform="translate(2766.113281 0)"/>
     <use xlink:href="#DejaVuSans-45" transform="translate(2835.9375 0)"/>
     <use xlink:href="#DejaVuSans-53" transform="translate(2899.121094 0)"/>
     <use xlink:href="#DejaVuSans-49" transform="translate(2962.597656 0)"/>
     <use xlink:href="#DejaVuSans-20" transform="translate(2992.089844 0)"/>
     <use xlink:href="#DejaVuSans-72" transform="translate(3023.876953 0)"/>
     <use xlink:href="#DejaVuSans-69" transform="translate(3064.990234 0)"/>
     <use xlink:href="#DejaVuSans-73" transform="translate(3092.773438 0)"/>
     <use xlink:href="#DejaVuSans-65" transform="translate(3144.873047 0)"/>
    </g>
    <!-- Within the CESI decomposition framework -->
    <g transform="translate(292.370859 29.7555) scale(0.12 -0.12)">
     <defs>
      <path id="DejaVuSans-57" d="M 213 4666 
L 850 4666 
L 1831 722 
L 2809 4666 
L 3519 4666 
L 4500 722 
L 5478 4666 
L 6119 4666 
L 4947 0 
L 4153 0 
L 3169 4050 
L 2175 0 
L 1381 0 
L 213 4666 
z
" transform="scale(0.015625)"/>
      <path id="DejaVuSans-70" d="M 1159 525 
L 1159 -1331 
L 581 -1331 
L 581 3500 
L 1159 3500 
L 1159 2969 
Q 1341 3281 1617 3432 
Q 1894 3584 2278 3584 
Q 2916 3584 3314 3078 
Q 3713 2572 3713 1747 
Q 3713 922 3314 415 
Q 2916 -91 2278 -91 
Q 1894 -91 1617 61 
Q 1341 213 1159 525 
z
M 3116 1747 
Q 3116 2381 2855 2742 
Q 2594 3103 2138 3103 
Q 1681 3103 1420 2742 
Q 1159 2381 1159 1747 
Q 1159 1113 1420 752 
Q 1681 391 2138 391 
Q 2594 391 2855 752 
Q 3116 1113 3116 1747 
z
" transform="scale(0.015625)"/>
      <path id="DejaVuSans-6b" d="M 581 4863 
L 1159 4863 
L 1159 1991 
L 2875 3500 
L 3609 3500 
L 1753 1863 
L 3688 0 
L 2938 0 
L 1159 1709 
L 1159 0 
L 581 0 
L 581 4863 
z
" transform="scale(0.015625)"/>
     </defs>
     <use xlink:href="#DejaVuSans-57"/>
     <use xlink:href="#DejaVuSans-69" transform="translate(96.626953 0)"/>
     <use xlink:href="#DejaVuSans-74" transform="translate(124.410156 0)"/>
     <use xlink:href="#DejaVuSans-68" transform="translate(163.619141 0)"/>
     <use xlink:href="#DejaVuSans-69" transform="translate(226.998047 0)"/>
     <use xlink:href="#DejaVuSans-6e" transform="translate(254.78125 0)"/>
     <use xlink:href="#DejaVuSans-20" transform="translate(318.160156 0)"/>
     <use xlink:href="#DejaVuSans-74" transform="translate(349.947266 0)"/>
     <use xlink:href="#DejaVuSans-68" transform="translate(389.15625 0)"/>
     <use xlink:href="#DejaVuSans-65" transform="translate(452.535156 0)"/>
     <use xlink:href="#DejaVuSans-20" transform="translate(514.058594 0)"/>
     <use xlink:href="#DejaVuSans-43" transform="translate(545.845703 0)"/>
     <use xlink:href="#DejaVuSans-45" transform="translate(615.669922 0)"/>
     <use xlink:href="#DejaVuSans-53" transform="translate(678.853516 0)"/>
     <use xlink:href="#DejaVuSans-49" transform="translate(742.330078 0)"/>
     <use xlink:href="#DejaVuSans-20" transform="translate(771.822266 0)"/>
     <use xlink:href="#DejaVuSans-64" transform="translate(803.609375 0)"/>
     <use xlink:href="#DejaVuSans-65" transform="translate(867.085938 0)"/>
     <use xlink:href="#DejaVuSans-63" transform="translate(928.609375 0)"/>
     <use xlink:href="#DejaVuSans-6f" transform="translate(983.589844 0)"/>
     <use xlink:href="#DejaVuSans-6d" transform="translate(1044.771484 0)"/>
     <use xlink:href="#DejaVuSans-70" transform="translate(1142.183594 0)"/>
     <use xlink:href="#DejaVuSans-6f" transform="translate(1205.660156 0)"/>
     <use xlink:href="#DejaVuSans-73" transform="translate(1266.841797 0)"/>
     <use xlink:href="#DejaVuSans-69" transform="translate(1318.941406 0)"/>
     <use xlink:href="#DejaVuSans-74" transform="translate(1346.724609 0)"/>
     <use xlink:href="#DejaVuSans-69" transform="translate(1385.933594 0)"/>
     <use xlink:href="#DejaVuSans-6f" transform="translate(1413.716797 0)"/>
     <use xlink:href="#DejaVuSans-6e" transform="translate(1474.898438 0)"/>
     <use xlink:href="#DejaVuSans-20" transform="translate(1538.277344 0)"/>
     <use xlink:href="#DejaVuSans-66" transform="translate(1570.064453 0)"/>
     <use xlink:href="#DejaVuSans-72" transform="translate(1605.269531 0)"/>
     <use xlink:href="#DejaVuSans-61" transform="translate(1646.382812 0)"/>
     <use xlink:href="#DejaVuSans-6d" transform="translate(1707.662109 0)"/>
     <use xlink:href="#DejaVuSans-65" transform="translate(1805.074219 0)"/>
     <use xlink:href="#DejaVuSans-77" transform="translate(1866.597656 0)"/>
     <use xlink:href="#DejaVuSans-6f" transform="translate(1948.384766 0)"/>
     <use xlink:href="#DejaVuSans-72" transform="translate(2009.566406 0)"/>
     <use xlink:href="#DejaVuSans-6b" transform="translate(2050.679688 0)"/>
    </g>
   </g>
  </g>
  <g id="text_23">
   <!-- EROI decline contributes +1681 (88% of total rise of 1917); demand growth +1073 (56%); R/P dynamics -610 (-32%). R/P contribution is negative because reserves grow modestly in -->
   <g transform="translate(7.2 463.033094) scale(0.085 -0.085)">
    <defs>
     <path id="DejaVuSans-Oblique-45" d="M 1081 4666 
L 4031 4666 
L 3928 4134 
L 1606 4134 
L 1338 2753 
L 3566 2753 
L 3463 2222 
L 1234 2222 
L 909 531 
L 3284 531 
L 3181 0 
L 172 0 
L 1081 4666 
z
" transform="scale(0.015625)"/>
     <path id="DejaVuSans-Oblique-52" d="M 1613 4147 
L 1294 2491 
L 2106 2491 
Q 2584 2491 2879 2755 
Q 3175 3019 3175 3444 
Q 3175 3784 2976 3965 
Q 2778 4147 2406 4147 
L 1613 4147 
z
M 2772 2241 
Q 2972 2194 3105 2009 
Q 3238 1825 3413 1275 
L 3809 0 
L 3144 0 
L 2778 1197 
Q 2638 1659 2453 1815 
Q 2269 1972 1888 1972 
L 1191 1972 
L 806 0 
L 172 0 
L 1081 4666 
L 2503 4666 
Q 3150 4666 3495 4373 
Q 3841 4081 3841 3531 
Q 3841 3044 3547 2687 
Q 3253 2331 2772 2241 
z
" transform="scale(0.015625)"/>
     <path id="DejaVuSans-Oblique-4f" d="M 2919 4238 
Q 2400 4238 2003 3986 
Q 1606 3734 1313 3219 
Q 1125 2891 1026 2522 
Q 928 2153 928 1778 
Q 928 1128 1239 775 
Q 1550 422 2119 422 
Q 2631 422 3032 676 
Q 3434 931 3719 1434 
Q 3909 1772 4009 2142 
Q 4109 2513 4109 2881 
Q 4109 3528 3796 3883 
Q 3484 4238 2919 4238 
z
M 2100 -91 
Q 1241 -91 748 418 
Q 256 928 256 1813 
Q 256 2319 448 2847 
Q 641 3375 978 3788 
Q 1375 4272 1862 4511 
Q 2350 4750 2938 4750 
Q 3794 4750 4287 4245 
Q 4781 3741 4781 2869 
Q 4781 2331 4593 1812 
Q 4406 1294 4056 872 
Q 3656 384 3173 146 
Q 2691 -91 2100 -91 
z
" transform="scale(0.015625)"/>
     <path id="DejaVuSans-Oblique-49" d="M 1081 4666 
L 1716 4666 
L 806 0 
L 172 0 
L 1081 4666 
z
" transform="scale(0.015625)"/>
     <path id="DejaVuSans-Oblique-20" transform="scale(0.015625)"/>
     <path id="DejaVuSans-Oblique-64" d="M 2675 525 
Q 2444 222 2128 65 
Q 1813 -91 1428 -91 
Q 903 -91 598 267 
Q 294 625 294 1247 
Q 294 1766 478 2236 
Q 663 2706 1013 3078 
Q 1244 3325 1534 3454 
Q 1825 3584 2144 3584 
Q 2481 3584 2739 3421 
Q 2997 3259 3138 2956 
L 3513 4863 
L 4091 4863 
L 3144 0 
L 2566 0 
L 2675 525 
z
M 891 1350 
Q 891 897 1095 644 
Q 1300 391 1663 391 
Q 1931 391 2161 520 
Q 2391 650 2566 903 
Q 2750 1166 2856 1509 
Q 2963 1853 2963 2188 
Q 2963 2622 2758 2865 
Q 2553 3109 2194 3109 
Q 1922 3109 1687 2981 
Q 1453 2853 1288 2613 
Q 1106 2353 998 2009 
Q 891 1666 891 1350 
z
" transform="scale(0.015625)"/>
     <path id="DejaVuSans-Oblique-65" d="M 3078 2063 
Q 3088 2113 3092 2166 
Q 3097 2219 3097 2272 
Q 3097 2653 2873 2875 
Q 2650 3097 2266 3097 
Q 1838 3097 1509 2826 
Q 1181 2556 1013 2059 
L 3078 2063 
z
M 3578 1613 
L 903 1613 
Q 884 1494 878 1425 
Q 872 1356 872 1306 
Q 872 872 1139 634 
Q 1406 397 1894 397 
Q 2269 397 2603 481 
Q 2938 566 3225 728 
L 3116 159 
Q 2806 34 2476 -28 
Q 2147 -91 1806 -91 
Q 1078 -91 686 257 
Q 294 606 294 1247 
Q 294 1794 489 2264 
Q 684 2734 1063 3103 
Q 1306 3334 1642 3459 
Q 1978 3584 2356 3584 
Q 2950 3584 3301 3228 
Q 3653 2872 3653 2272 
Q 3653 2128 3634 1964 
Q 3616 1800 3578 1613 
z
" transform="scale(0.015625)"/>
     <path id="DejaVuSans-Oblique-63" d="M 3431 3366 
L 3316 2797 
Q 3109 2947 2876 3022 
Q 2644 3097 2394 3097 
Q 2119 3097 1870 3000 
Q 1622 2903 1453 2725 
Q 1184 2453 1037 2087 
Q 891 1722 891 1331 
Q 891 859 1127 628 
Q 1363 397 1844 397 
Q 2081 397 2348 469 
Q 2616 541 2906 684 
L 2797 116 
Q 2547 13 2283 -39 
Q 2019 -91 1741 -91 
Q 1044 -91 669 257 
Q 294 606 294 1253 
Q 294 1797 489 2255 
Q 684 2713 1069 3078 
Q 1331 3328 1684 3456 
Q 2038 3584 2456 3584 
Q 2700 3584 2940 3529 
Q 3181 3475 3431 3366 
z
" transform="scale(0.015625)"/>
     <path id="DejaVuSans-Oblique-6c" d="M 1172 4863 
L 1747 4863 
L 800 0 
L 225 0 
L 1172 4863 
z
" transform="scale(0.015625)"/>
     <path id="DejaVuSans-Oblique-69" d="M 1172 4863 
L 1747 4863 
L 1606 4134 
L 1031 4134 
L 1172 4863 
z
M 909 3500 
L 1484 3500 
L 800 0 
L 225 0 
L 909 3500 
z
" transform="scale(0.015625)"/>
     <path id="DejaVuSans-Oblique-6e" d="M 3566 2113 
L 3156 0 
L 2578 0 
L 2988 2091 
Q 3016 2238 3031 2350 
Q 3047 2463 3047 2528 
Q 3047 2791 2881 2937 
Q 2716 3084 2419 3084 
Q 1956 3084 1622 2776 
Q 1288 2469 1184 1941 
L 800 0 
L 225 0 
L 903 3500 
L 1478 3500 
L 1363 2950 
Q 1603 3253 1940 3418 
Q 2278 3584 2650 3584 
Q 3113 3584 3367 3334 
Q 3622 3084 3622 2631 
Q 3622 2519 3608 2391 
Q 3594 2263 3566 2113 
z
" transform="scale(0.015625)"/>
     <path id="DejaVuSans-Oblique-6f" d="M 1625 -91 
Q 1009 -91 651 289 
Q 294 669 294 1325 
Q 294 1706 417 2101 
Q 541 2497 738 2766 
Q 1047 3184 1428 3384 
Q 1809 3584 2291 3584 
Q 2888 3584 3255 3212 
Q 3622 2841 3622 2241 
Q 3622 1825 3500 1412 
Q 3378 1000 3181 728 
Q 2875 309 2494 109 
Q 2113 -91 1625 -91 
z
M 891 1344 
Q 891 869 1089 633 
Q 1288 397 1691 397 
Q 2269 397 2648 901 
Q 3028 1406 3028 2181 
Q 3028 2634 2825 2865 
Q 2622 3097 2228 3097 
Q 1903 3097 1650 2945 
Q 1397 2794 1197 2484 
Q 1050 2253 970 1956 
Q 891 1659 891 1344 
z
" transform="scale(0.015625)"/>
     <path id="DejaVuSans-Oblique-74" d="M 2706 3500 
L 2619 3053 
L 1472 3053 
L 1100 1153 
Q 1081 1047 1072 975 
Q 1063 903 1063 863 
Q 1063 663 1183 572 
Q 1303 481 1569 481 
L 2150 481 
L 2053 0 
L 1503 0 
Q 991 0 739 200 
Q 488 400 488 806 
Q 488 878 497 964 
Q 506 1050 525 1153 
L 897 3053 
L 409 3053 
L 500 3500 
L 978 3500 
L 1172 4494 
L 1747 4494 
L 1556 3500 
L 2706 3500 
z
" transform="scale(0.015625)"/>
     <path id="DejaVuSans-Oblique-72" d="M 2853 2969 
Q 2766 3016 2653 3041 
Q 2541 3066 2413 3066 
Q 1953 3066 1609 2717 
Q 1266 2369 1153 1784 
L 800 0 
L 225 0 
L 909 3500 
L 1484 3500 
L 1375 2956 
Q 1603 3259 1920 3421 
Q 2238 3584 2597 3584 
Q 2691 3584 2781 3573 
Q 2872 3563 2963 3538 
L 2853 2969 
z
" transform="scale(0.015625)"/>
     <path id="DejaVuSans-Oblique-62" d="M 3169 2138 
Q 3169 2591 2961 2847 
Q 2753 3103 2388 3103 
Q 2122 3103 1889 2973 
Q 1656 2844 1484 2597 
Q 1303 2338 1198 1995 
Q 1094 1653 1094 1313 
Q 1094 881 1298 636 
Q 1503 391 1863 391 
Q 2134 391 2365 517 
Q 2597 644 2772 891 
Q 2950 1147 3059 1487 
Q 3169 1828 3169 2138 
z
M 1381 2969 
Q 1594 3256 1914 3420 
Q 2234 3584 2584 3584 
Q 3122 3584 3439 3221 
Q 3756 2859 3756 2241 
Q 3756 1734 3570 1259 
Q 3384 784 3041 416 
Q 2816 172 2522 40 
Q 2228 -91 1906 -91 
Q 1566 -91 1316 65 
Q 1066 222 909 531 
L 806 0 
L 231 0 
L 1178 4863 
L 1753 4863 
L 1381 2969 
z
" transform="scale(0.015625)"/>
     <path id="DejaVuSans-Oblique-75" d="M 428 1388 
L 838 3500 
L 1416 3500 
L 1006 1409 
Q 975 1256 961 1147 
Q 947 1038 947 966 
Q 947 700 1109 554 
Q 1272 409 1569 409 
Q 2031 409 2368 721 
Q 2706 1034 2809 1563 
L 3194 3500 
L 3769 3500 
L 3091 0 
L 2516 0 
L 2631 550 
Q 2388 244 2052 76 
Q 1716 -91 1338 -91 
Q 878 -91 622 161 
Q 366 413 366 863 
Q 366 956 381 1097 
Q 397 1238 428 1388 
z
" transform="scale(0.015625)"/>
     <path id="DejaVuSans-Oblique-73" d="M 3200 3397 
L 3091 2853 
Q 2863 2978 2609 3040 
Q 2356 3103 2088 3103 
Q 1634 3103 1373 2948 
Q 1113 2794 1113 2528 
Q 1113 2219 1719 2053 
Q 1766 2041 1788 2034 
L 1972 1978 
Q 2547 1819 2739 1644 
Q 2931 1469 2931 1166 
Q 2931 609 2489 259 
Q 2047 -91 1331 -91 
Q 1053 -91 747 -37 
Q 441 16 72 128 
L 184 722 
Q 500 559 806 475 
Q 1113 391 1394 391 
Q 1816 391 2080 572 
Q 2344 753 2344 1031 
Q 2344 1331 1650 1516 
L 1591 1531 
L 1394 1581 
Q 956 1697 753 1886 
Q 550 2075 550 2369 
Q 550 2928 970 3256 
Q 1391 3584 2113 3584 
Q 2397 3584 2667 3537 
Q 2938 3491 3200 3397 
z
" transform="scale(0.015625)"/>
     <path id="DejaVuSans-Oblique-2b" d="M 2944 4013 
L 2944 2272 
L 4684 2272 
L 4684 1741 
L 2944 1741 
L 2944 0 
L 2419 0 
L 2419 1741 
L 678 1741 
L 678 2272 
L 2419 2272 
L 2419 4013 
L 2944 4013 
z
" transform="scale(0.015625)"/>
     <path id="DejaVuSans-Oblique-31" d="M 416 531 
L 1447 531 
L 2144 4122 
L 978 3897 
L 1088 4441 
L 2247 4666 
L 2881 4666 
L 2075 531 
L 3103 531 
L 3003 0 
L 313 0 
L 416 531 
z
" transform="scale(0.015625)"/>
     <path id="DejaVuSans-Oblique-36" d="M 2938 1728 
Q 2938 2125 2734 2354 
Q 2531 2584 2181 2584 
Q 1697 2584 1367 2211 
Q 1038 1838 1038 1288 
Q 1038 875 1239 642 
Q 1441 409 1797 409 
Q 2284 409 2611 792 
Q 2938 1175 2938 1728 
z
M 3788 4556 
L 3681 3981 
Q 3500 4100 3265 4162 
Q 3031 4225 2766 4225 
Q 2119 4225 1726 3819 
Q 1334 3413 1141 2547 
Q 1369 2813 1670 2948 
Q 1972 3084 2322 3084 
Q 2894 3084 3233 2754 
Q 3572 2425 3572 1869 
Q 3572 1413 3405 1020 
Q 3238 628 2919 331 
Q 2700 128 2409 18 
Q 2119 -91 1791 -91 
Q 1147 -91 775 318 
Q 403 728 403 1441 
Q 403 2103 573 2717 
Q 744 3331 1050 3781 
Q 1372 4256 1830 4503 
Q 2288 4750 2841 4750 
Q 3084 4750 3321 4701 
Q 3559 4653 3788 4556 
z
" transform="scale(0.015625)"/>
     <path id="DejaVuSans-Oblique-38" d="M 2847 1416 
Q 2847 1769 2600 1992 
Q 2353 2216 1953 2216 
Q 1466 2216 1148 1923 
Q 831 1631 831 1184 
Q 831 828 1073 618 
Q 1316 409 1728 409 
Q 2219 409 2533 693 
Q 2847 978 2847 1416 
z
M 3169 3591 
Q 3169 3888 2950 4069 
Q 2731 4250 2369 4250 
Q 1941 4250 1664 4009 
Q 1388 3769 1388 3406 
Q 1388 3094 1605 2903 
Q 1822 2713 2181 2713 
Q 2613 2713 2891 2961 
Q 3169 3209 3169 3591 
z
M 2741 2456 
Q 3094 2322 3281 2050 
Q 3469 1778 3469 1394 
Q 3469 747 2969 328 
Q 2469 -91 1678 -91 
Q 1006 -91 609 239 
Q 213 569 213 1119 
Q 213 1619 553 2008 
Q 894 2397 1441 2503 
Q 1113 2616 941 2852 
Q 769 3088 769 3425 
Q 769 3991 1239 4370 
Q 1709 4750 2431 4750 
Q 3034 4750 3414 4442 
Q 3794 4134 3794 3659 
Q 3794 3247 3511 2923 
Q 3228 2600 2741 2456 
z
" transform="scale(0.015625)"/>
     <path id="DejaVuSans-Oblique-28" d="M 2731 4856 
Q 1903 3822 1495 2892 
Q 1088 1963 1088 1100 
Q 1088 606 1206 120 
Q 1325 -366 1563 -844 
L 1063 -844 
Q 775 -306 634 201 
Q 494 709 494 1197 
Q 494 2125 923 3036 
Q 1353 3947 2222 4856 
L 2731 4856 
z
" transform="scale(0.015625)"/>
     <path id="DejaVuSans-Oblique-25" d="M 1503 2209 
Q 1078 2209 829 2486 
Q 581 2763 581 3238 
Q 581 3913 943 4331 
Q 1306 4750 1888 4750 
Q 2313 4750 2561 4470 
Q 2809 4191 2809 3713 
Q 2809 3044 2446 2626 
Q 2084 2209 1503 2209 
z
M 2309 3694 
Q 2309 4022 2187 4187 
Q 2066 4353 1825 4353 
Q 1475 4353 1278 4050 
Q 1081 3747 1081 3206 
Q 1081 2919 1207 2762 
Q 1334 2606 1569 2606 
Q 1903 2606 2106 2903 
Q 2309 3200 2309 3694 
z
M 4997 1394 
Q 4997 1728 4878 1893 
Q 4759 2059 4519 2059 
Q 4172 2059 3973 1754 
Q 3775 1450 3775 909 
Q 3775 619 3901 462 
Q 4028 306 4263 306 
Q 4597 306 4797 603 
Q 4997 900 4997 1394 
z
M 4197 -91 
Q 3772 -91 3525 187 
Q 3278 466 3278 941 
Q 3278 1616 3639 2033 
Q 4000 2450 4581 2450 
Q 5006 2450 5251 2175 
Q 5497 1900 5497 1422 
Q 5497 750 5136 329 
Q 4775 -91 4197 -91 
z
M 5259 4750 
L 1403 -91 
L 903 -91 
L 4763 4750 
L 5259 4750 
z
" transform="scale(0.015625)"/>
     <path id="DejaVuSans-Oblique-66" d="M 3059 4863 
L 2969 4384 
L 2419 4384 
Q 2106 4384 1964 4261 
Q 1822 4138 1753 3809 
L 1691 3500 
L 2638 3500 
L 2553 3053 
L 1606 3053 
L 1013 0 
L 434 0 
L 1031 3053 
L 481 3053 
L 563 3500 
L 1113 3500 
L 1159 3744 
Q 1278 4363 1576 4613 
Q 1875 4863 2516 4863 
L 3059 4863 
z
" transform="scale(0.015625)"/>
     <path id="DejaVuSans-Oblique-61" d="M 3438 1997 
L 3047 0 
L 2472 0 
L 2578 531 
Q 2325 219 2001 64 
Q 1678 -91 1281 -91 
Q 834 -91 548 182 
Q 263 456 263 884 
Q 263 1497 752 1853 
Q 1241 2209 2100 2209 
L 2900 2209 
L 2931 2363 
Q 2938 2388 2941 2417 
Q 2944 2447 2944 2509 
Q 2944 2788 2717 2942 
Q 2491 3097 2081 3097 
Q 1800 3097 1504 3025 
Q 1209 2953 897 2809 
L 997 3341 
Q 1322 3463 1633 3523 
Q 1944 3584 2234 3584 
Q 2853 3584 3176 3315 
Q 3500 3047 3500 2534 
Q 3500 2431 3484 2292 
Q 3469 2153 3438 1997 
z
M 2816 1759 
L 2241 1759 
Q 1534 1759 1195 1570 
Q 856 1381 856 984 
Q 856 709 1029 553 
Q 1203 397 1509 397 
Q 1978 397 2328 733 
Q 2678 1069 2791 1631 
L 2816 1759 
z
" transform="scale(0.015625)"/>
     <path id="DejaVuSans-Oblique-39" d="M 281 103 
L 397 678 
Q 578 559 809 496 
Q 1041 434 1306 434 
Q 1953 434 2348 843 
Q 2744 1253 2938 2119 
Q 2706 1853 2401 1714 
Q 2097 1575 1747 1575 
Q 1178 1575 842 1904 
Q 506 2234 506 2791 
Q 506 3247 672 3639 
Q 838 4031 1159 4325 
Q 1378 4531 1665 4640 
Q 1953 4750 2278 4750 
Q 2925 4750 3300 4339 
Q 3675 3928 3675 3219 
Q 3675 2559 3501 1943 
Q 3328 1328 3022 878 
Q 2697 403 2240 156 
Q 1784 -91 1228 -91 
Q 988 -91 748 -42 
Q 509 6 281 103 
z
M 1131 2938 
Q 1131 2541 1337 2308 
Q 1544 2075 1894 2075 
Q 2378 2075 2706 2447 
Q 3034 2819 3034 3372 
Q 3034 3784 2831 4017 
Q 2628 4250 2272 4250 
Q 1788 4250 1459 3870 
Q 1131 3491 1131 2938 
z
" transform="scale(0.015625)"/>
     <path id="DejaVuSans-Oblique-37" d="M 819 4666 
L 4013 4666 
L 3956 4397 
L 1288 0 
L 594 0 
L 3116 4134 
L 716 4134 
L 819 4666 
z
" transform="scale(0.015625)"/>
     <path id="DejaVuSans-Oblique-29" d="M -397 -844 
Q 434 191 840 1120 
Q 1247 2050 1247 2913 
Q 1247 3406 1130 3892 
Q 1013 4378 775 4856 
L 1275 4856 
Q 1563 4316 1703 3812 
Q 1844 3309 1844 2822 
Q 1844 1891 1411 973 
Q 978 56 116 -844 
L -397 -844 
z
" transform="scale(0.015625)"/>
     <path id="DejaVuSans-Oblique-3b" d="M 563 794 
L 1222 794 
L 1113 256 
L 409 -744 
L 6 -744 
L 453 256 
L 563 794 
z
M 1050 3309 
L 1709 3309 
L 1556 2516 
L 897 2516 
L 1050 3309 
z
" transform="scale(0.015625)"/>
     <path id="DejaVuSans-Oblique-6d" d="M 5747 2113 
L 5338 0 
L 4763 0 
L 5166 2094 
Q 5191 2228 5203 2325 
Q 5216 2422 5216 2491 
Q 5216 2772 5059 2928 
Q 4903 3084 4622 3084 
Q 4203 3084 3875 2770 
Q 3547 2456 3450 1953 
L 3066 0 
L 2491 0 
L 2900 2094 
Q 2925 2209 2937 2307 
Q 2950 2406 2950 2484 
Q 2950 2769 2794 2926 
Q 2638 3084 2363 3084 
Q 1938 3084 1609 2770 
Q 1281 2456 1184 1953 
L 800 0 
L 225 0 
L 909 3500 
L 1484 3500 
L 1375 2956 
Q 1609 3263 1923 3423 
Q 2238 3584 2597 3584 
Q 2978 3584 3223 3384 
Q 3469 3184 3519 2828 
Q 3781 3197 4126 3390 
Q 4472 3584 4856 3584 
Q 5306 3584 5551 3325 
Q 5797 3066 5797 2591 
Q 5797 2488 5784 2364 
Q 5772 2241 5747 2113 
z
" transform="scale(0.015625)"/>
     <path id="DejaVuSans-Oblique-67" d="M 3816 3500 
L 3219 434 
Q 3047 -456 2561 -893 
Q 2075 -1331 1253 -1331 
Q 950 -1331 690 -1286 
Q 431 -1241 206 -1147 
L 313 -588 
Q 525 -725 762 -790 
Q 1000 -856 1269 -856 
Q 1816 -856 2167 -557 
Q 2519 -259 2631 300 
L 2681 563 
Q 2441 288 2122 144 
Q 1803 0 1434 0 
Q 903 0 598 351 
Q 294 703 294 1319 
Q 294 1803 478 2267 
Q 663 2731 997 3091 
Q 1219 3328 1514 3456 
Q 1809 3584 2131 3584 
Q 2484 3584 2746 3420 
Q 3009 3256 3138 2956 
L 3238 3500 
L 3816 3500 
z
M 2950 2216 
Q 2950 2641 2750 2872 
Q 2550 3103 2181 3103 
Q 1953 3103 1747 3012 
Q 1541 2922 1394 2759 
Q 1156 2491 1023 2127 
Q 891 1763 891 1375 
Q 891 944 1092 712 
Q 1294 481 1672 481 
Q 2219 481 2584 976 
Q 2950 1472 2950 2216 
z
" transform="scale(0.015625)"/>
     <path id="DejaVuSans-Oblique-77" d="M 544 3500 
L 1113 3500 
L 1259 684 
L 2566 3500 
L 3231 3500 
L 3425 684 
L 4666 3500 
L 5241 3500 
L 3641 0 
L 2969 0 
L 2797 2900 
L 1459 0 
L 781 0 
L 544 3500 
z
" transform="scale(0.015625)"/>
     <path id="DejaVuSans-Oblique-68" d="M 3566 2113 
L 3156 0 
L 2578 0 
L 2988 2091 
Q 3016 2238 3031 2350 
Q 3047 2463 3047 2528 
Q 3047 2791 2881 2937 
Q 2716 3084 2419 3084 
Q 1956 3084 1617 2771 
Q 1278 2459 1178 1941 
L 800 0 
L 225 0 
L 1172 4863 
L 1747 4863 
L 1375 2950 
Q 1594 3244 1934 3414 
Q 2275 3584 2650 3584 
Q 3113 3584 3367 3334 
Q 3622 3084 3622 2631 
Q 3622 2519 3608 2391 
Q 3594 2263 3566 2113 
z
" transform="scale(0.015625)"/>
     <path id="DejaVuSans-Oblique-30" d="M 2444 4750 
Q 3078 4750 3414 4328 
Q 3750 3906 3750 3116 
Q 3750 2516 3592 1923 
Q 3434 1331 3150 863 
Q 2859 394 2467 151 
Q 2075 -91 1600 -91 
Q 988 -91 653 334 
Q 319 759 319 1544 
Q 319 2138 480 2733 
Q 641 3328 928 3794 
Q 1216 4263 1602 4506 
Q 1988 4750 2444 4750 
z
M 2406 4250 
Q 2169 4250 1955 4123 
Q 1741 3997 1569 3750 
Q 1281 3338 1111 2720 
Q 941 2103 941 1453 
Q 941 938 1123 673 
Q 1306 409 1663 409 
Q 1913 409 2125 536 
Q 2338 663 2509 909 
Q 2794 1319 2961 1936 
Q 3128 2553 3128 3206 
Q 3128 3722 2945 3986 
Q 2763 4250 2406 4250 
z
" transform="scale(0.015625)"/>
     <path id="DejaVuSans-Oblique-33" d="M 1013 4550 
Q 1356 4650 1679 4700 
Q 2003 4750 2316 4750 
Q 2934 4750 3296 4475 
Q 3659 4200 3659 3738 
Q 3659 3284 3373 2959 
Q 3088 2634 2584 2516 
Q 2978 2403 3162 2165 
Q 3347 1928 3347 1538 
Q 3347 1163 3167 834 
Q 2988 506 2650 269 
Q 2394 88 2037 -1 
Q 1681 -91 1216 -91 
Q 922 -91 622 -33 
Q 322 25 13 141 
L 128 738 
Q 422 575 720 495 
Q 1019 416 1331 416 
Q 1947 416 2330 733 
Q 2713 1050 2713 1556 
Q 2713 1881 2469 2057 
Q 2225 2234 1772 2234 
L 1228 2234 
L 1325 2747 
L 1900 2747 
Q 2419 2747 2717 2984 
Q 3016 3222 3016 3628 
Q 3016 3922 2797 4083 
Q 2578 4244 2181 4244 
Q 1881 4244 1567 4180 
Q 1253 4116 916 3988 
L 1013 4550 
z
" transform="scale(0.015625)"/>
     <path id="DejaVuSans-Oblique-35" d="M 3719 4666 
L 3622 4141 
L 1691 4141 
L 1466 2988 
Q 1609 3034 1757 3056 
Q 1906 3078 2059 3078 
Q 2706 3078 3081 2731 
Q 3456 2384 3456 1791 
Q 3456 1375 3264 994 
Q 3072 613 2719 325 
Q 2469 125 2108 17 
Q 1747 -91 1319 -91 
Q 1038 -91 744 -41 
Q 450 9 128 109 
L 244 697 
Q 531 556 820 486 
Q 1109 416 1403 416 
Q 2013 416 2411 781 
Q 2809 1147 2809 1697 
Q 2809 2103 2548 2328 
Q 2288 2553 1819 2553 
Q 1572 2553 1305 2495 
Q 1038 2438 756 2322 
L 1209 4666 
L 3719 4666 
z
" transform="scale(0.015625)"/>
     <path id="DejaVuSans-Oblique-2f" d="M 2175 4666 
L 2731 4666 
L 84 -594 
L -469 -594 
L 2175 4666 
z
" transform="scale(0.015625)"/>
     <path id="DejaVuSans-Oblique-50" d="M 1081 4666 
L 2541 4666 
Q 3178 4666 3512 4369 
Q 3847 4072 3847 3500 
Q 3847 2731 3353 2303 
Q 2859 1875 1966 1875 
L 1172 1875 
L 806 0 
L 172 0 
L 1081 4666 
z
M 1613 4147 
L 1275 2394 
L 2069 2394 
Q 2606 2394 2893 2669 
Q 3181 2944 3181 3456 
Q 3181 3784 2986 3965 
Q 2791 4147 2438 4147 
L 1613 4147 
z
" transform="scale(0.015625)"/>
     <path id="DejaVuSans-Oblique-79" d="M 1588 -325 
Q 1188 -997 936 -1164 
Q 684 -1331 294 -1331 
L -159 -1331 
L -63 -850 
L 269 -850 
Q 509 -850 678 -719 
Q 847 -588 1056 -206 
L 1234 128 
L 459 3500 
L 1069 3500 
L 1650 819 
L 3256 3500 
L 3859 3500 
L 1588 -325 
z
" transform="scale(0.015625)"/>
     <path id="DejaVuSans-Oblique-2d" d="M 391 2009 
L 2075 2009 
L 1978 1497 
L 288 1497 
L 391 2009 
z
" transform="scale(0.015625)"/>
     <path id="DejaVuSans-Oblique-32" d="M 2950 2253 
L 934 525 
L 3163 525 
L 3053 0 
L 25 0 
L 128 531 
L 2234 2338 
Q 2656 2703 2832 2979 
Q 3009 3256 3009 3547 
Q 3009 3850 2796 4040 
Q 2584 4231 2241 4231 
Q 1944 4231 1581 4125 
Q 1219 4019 806 3816 
L 922 4441 
Q 1309 4594 1662 4672 
Q 2016 4750 2316 4750 
Q 2928 4750 3301 4425 
Q 3675 4100 3675 3572 
Q 3675 3216 3497 2892 
Q 3319 2569 2950 2253 
z
" transform="scale(0.015625)"/>
     <path id="DejaVuSans-Oblique-2e" d="M 525 794 
L 1184 794 
L 1031 0 
L 372 0 
L 525 794 
z
" transform="scale(0.015625)"/>
     <path id="DejaVuSans-Oblique-76" d="M 459 3500 
L 1069 3500 
L 1581 525 
L 3256 3500 
L 3866 3500 
L 1875 0 
L 1100 0 
L 459 3500 
z
" transform="scale(0.015625)"/>
    </defs>
    <use xlink:href="#DejaVuSans-Oblique-45"/>
    <use xlink:href="#DejaVuSans-Oblique-52" transform="translate(63.183594 0)"/>
    <use xlink:href="#DejaVuSans-Oblique-4f" transform="translate(132.666016 0)"/>
    <use xlink:href="#DejaVuSans-Oblique-49" transform="translate(211.376953 0)"/>
    <use xlink:href="#DejaVuSans-Oblique-20" transform="translate(240.869141 0)"/>
    <use xlink:href="#DejaVuSans-Oblique-64" transform="translate(272.65625 0)"/>
    <use xlink:href="#DejaVuSans-Oblique-65" transform="translate(336.132812 0)"/>
    <use xlink:href="#DejaVuSans-Oblique-63" transform="translate(397.65625 0)"/>
    <use xlink:href="#DejaVuSans-Oblique-6c" transform="translate(452.636719 0)"/>
    <use xlink:href="#DejaVuSans-Oblique-69" transform="translate(480.419922 0)"/>
    <use xlink:href="#DejaVuSans-Oblique-6e" transform="translate(508.203125 0)"/>
    <use xlink:href="#DejaVuSans-Oblique-65" transform="translate(571.582031 0)"/>
    <use xlink:href="#DejaVuSans-Oblique-20" transform="translate(633.105469 0)"/>
    <use xlink:href="#DejaVuSans-Oblique-63" transform="translate(664.892578 0)"/>
    <use xlink:href="#DejaVuSans-Oblique-6f" transform="translate(719.873047 0)"/>
    <use xlink:href="#DejaVuSans-Oblique-6e" transform="translate(781.054688 0)"/>
    <use xlink:href="#DejaVuSans-Oblique-74" transform="translate(844.433594 0)"/>
    <use xlink:href="#DejaVuSans-Oblique-72" transform="translate(883.642578 0)"/>
    <use xlink:href="#DejaVuSans-Oblique-69" transform="translate(924.755859 0)"/>
    <use xlink:href="#DejaVuSans-Oblique-62" transform="translate(952.539062 0)"/>
    <use xlink:href="#DejaVuSans-Oblique-75" transform="translate(1016.015625 0)"/>
    <use xlink:href="#DejaVuSans-Oblique-74" transform="translate(1079.394531 0)"/>
    <use xlink:href="#DejaVuSans-Oblique-65" transform="translate(1118.603516 0)"/>
    <use xlink:href="#DejaVuSans-Oblique-73" transform="translate(1180.126953 0)"/>
    <use xlink:href="#DejaVuSans-Oblique-20" transform="translate(1232.226562 0)"/>
    <use xlink:href="#DejaVuSans-Oblique-2b" transform="translate(1264.013672 0)"/>
    <use xlink:href="#DejaVuSans-Oblique-31" transform="translate(1347.802734 0)"/>
    <use xlink:href="#DejaVuSans-Oblique-36" transform="translate(1411.425781 0)"/>
    <use xlink:href="#DejaVuSans-Oblique-38" transform="translate(1475.048828 0)"/>
    <use xlink:href="#DejaVuSans-Oblique-31" transform="translate(1538.671875 0)"/>
    <use xlink:href="#DejaVuSans-Oblique-20" transform="translate(1602.294922 0)"/>
    <use xlink:href="#DejaVuSans-Oblique-28" transform="translate(1634.082031 0)"/>
    <use xlink:href="#DejaVuSans-Oblique-38" transform="translate(1673.095703 0)"/>
    <use xlink:href="#DejaVuSans-Oblique-38" transform="translate(1736.71875 0)"/>
    <use xlink:href="#DejaVuSans-Oblique-25" transform="translate(1800.341797 0)"/>
    <use xlink:href="#DejaVuSans-Oblique-20" transform="translate(1895.361328 0)"/>
    <use xlink:href="#DejaVuSans-Oblique-6f" transform="translate(1927.148438 0)"/>
    <use xlink:href="#DejaVuSans-Oblique-66" transform="translate(1988.330078 0)"/>
    <use xlink:href="#DejaVuSans-Oblique-20" transform="translate(2023.535156 0)"/>
    <use xlink:href="#DejaVuSans-Oblique-74" transform="translate(2055.322266 0)"/>
    <use xlink:href="#DejaVuSans-Oblique-6f" transform="translate(2094.53125 0)"/>
    <use xlink:href="#DejaVuSans-Oblique-74" transform="translate(2155.712891 0)"/>
    <use xlink:href="#DejaVuSans-Oblique-61" transform="translate(2194.921875 0)"/>
    <use xlink:href="#DejaVuSans-Oblique-6c" transform="translate(2256.201172 0)"/>
    <use xlink:href="#DejaVuSans-Oblique-20" transform="translate(2283.984375 0)"/>
    <use xlink:href="#DejaVuSans-Oblique-72" transform="translate(2315.771484 0)"/>
    <use xlink:href="#DejaVuSans-Oblique-69" transform="translate(2356.884766 0)"/>
    <use xlink:href="#DejaVuSans-Oblique-73" transform="translate(2384.667969 0)"/>
    <use xlink:href="#DejaVuSans-Oblique-65" transform="translate(2436.767578 0)"/>
    <use xlink:href="#DejaVuSans-Oblique-20" transform="translate(2498.291016 0)"/>
    <use xlink:href="#DejaVuSans-Oblique-6f" transform="translate(2530.078125 0)"/>
    <use xlink:href="#DejaVuSans-Oblique-66" transform="translate(2591.259766 0)"/>
    <use xlink:href="#DejaVuSans-Oblique-20" transform="translate(2626.464844 0)"/>
    <use xlink:href="#DejaVuSans-Oblique-31" transform="translate(2658.251953 0)"/>
    <use xlink:href="#DejaVuSans-Oblique-39" transform="translate(2721.875 0)"/>
    <use xlink:href="#DejaVuSans-Oblique-31" transform="translate(2785.498047 0)"/>
    <use xlink:href="#DejaVuSans-Oblique-37" transform="translate(2849.121094 0)"/>
    <use xlink:href="#DejaVuSans-Oblique-29" transform="translate(2912.744141 0)"/>
    <use xlink:href="#DejaVuSans-Oblique-3b" transform="translate(2951.757812 0)"/>
    <use xlink:href="#DejaVuSans-Oblique-20" transform="translate(2985.449219 0)"/>
    <use xlink:href="#DejaVuSans-Oblique-64" transform="translate(3017.236328 0)"/>
    <use xlink:href="#DejaVuSans-Oblique-65" transform="translate(3080.712891 0)"/>
    <use xlink:href="#DejaVuSans-Oblique-6d" transform="translate(3142.236328 0)"/>
    <use xlink:href="#DejaVuSans-Oblique-61" transform="translate(3239.648438 0)"/>
    <use xlink:href="#DejaVuSans-Oblique-6e" transform="translate(3300.927734 0)"/>
    <use xlink:href="#DejaVuSans-Oblique-64" transform="translate(3364.306641 0)"/>
    <use xlink:href="#DejaVuSans-Oblique-20" transform="translate(3427.783203 0)"/>
    <use xlink:href="#DejaVuSans-Oblique-67" transform="translate(3459.570312 0)"/>
    <use xlink:href="#DejaVuSans-Oblique-72" transform="translate(3523.046875 0)"/>
    <use xlink:href="#DejaVuSans-Oblique-6f" transform="translate(3564.160156 0)"/>
    <use xlink:href="#DejaVuSans-Oblique-77" transform="translate(3625.341797 0)"/>
    <use xlink:href="#DejaVuSans-Oblique-74" transform="translate(3707.128906 0)"/>
    <use xlink:href="#DejaVuSans-Oblique-68" transform="translate(3746.337891 0)"/>
    <use xlink:href="#DejaVuSans-Oblique-20" transform="translate(3809.716797 0)"/>
    <use xlink:href="#DejaVuSans-Oblique-2b" transform="translate(3841.503906 0)"/>
    <use xlink:href="#DejaVuSans-Oblique-31" transform="translate(3925.292969 0)"/>
    <use xlink:href="#DejaVuSans-Oblique-30" transform="translate(3988.916016 0)"/>
    <use xlink:href="#DejaVuSans-Oblique-37" transform="translate(4052.539062 0)"/>
    <use xlink:href="#DejaVuSans-Oblique-33" transform="translate(4116.162109 0)"/>
    <use xlink:href="#DejaVuSans-Oblique-20" transform="translate(4179.785156 0)"/>
    <use xlink:href="#DejaVuSans-Oblique-28" transform="translate(4211.572266 0)"/>
    <use xlink:href="#DejaVuSans-Oblique-35" transform="translate(4250.585938 0)"/>
    <use xlink:href="#DejaVuSans-Oblique-36" transform="translate(4314.208984 0)"/>
    <use xlink:href="#DejaVuSans-Oblique-25" transform="translate(4377.832031 0)"/>
    <use xlink:href="#DejaVuSans-Oblique-29" transform="translate(4472.851562 0)"/>
    <use xlink:href="#DejaVuSans-Oblique-3b" transform="translate(4511.865234 0)"/>
    <use xlink:href="#DejaVuSans-Oblique-20" transform="translate(4545.556641 0)"/>
    <use xlink:href="#DejaVuSans-Oblique-52" transform="translate(4577.34375 0)"/>
    <use xlink:href="#DejaVuSans-Oblique-2f" transform="translate(4646.826172 0)"/>
    <use xlink:href="#DejaVuSans-Oblique-50" transform="translate(4680.517578 0)"/>
    <use xlink:href="#DejaVuSans-Oblique-20" transform="translate(4740.820312 0)"/>
    <use xlink:href="#DejaVuSans-Oblique-64" transform="translate(4772.607422 0)"/>
    <use xlink:href="#DejaVuSans-Oblique-79" transform="translate(4836.083984 0)"/>
    <use xlink:href="#DejaVuSans-Oblique-6e" transform="translate(4895.263672 0)"/>
    <use xlink:href="#DejaVuSans-Oblique-61" transform="translate(4958.642578 0)"/>
    <use xlink:href="#DejaVuSans-Oblique-6d" transform="translate(5019.921875 0)"/>
    <use xlink:href="#DejaVuSans-Oblique-69" transform="translate(5117.333984 0)"/>
    <use xlink:href="#DejaVuSans-Oblique-63" transform="translate(5145.117188 0)"/>
    <use xlink:href="#DejaVuSans-Oblique-73" transform="translate(5200.097656 0)"/>
    <use xlink:href="#DejaVuSans-Oblique-20" transform="translate(5252.197266 0)"/>
    <use xlink:href="#DejaVuSans-Oblique-2d" transform="translate(5283.984375 0)"/>
    <use xlink:href="#DejaVuSans-Oblique-36" transform="translate(5320.068359 0)"/>
    <use xlink:href="#DejaVuSans-Oblique-31" transform="translate(5383.691406 0)"/>
    <use xlink:href="#DejaVuSans-Oblique-30" transform="translate(5447.314453 0)"/>
    <use xlink:href="#DejaVuSans-Oblique-20" transform="translate(5510.9375 0)"/>
    <use xlink:href="#DejaVuSans-Oblique-28" transform="translate(5542.724609 0)"/>
    <use xlink:href="#DejaVuSans-Oblique-2d" transform="translate(5581.738281 0)"/>
    <use xlink:href="#DejaVuSans-Oblique-33" transform="translate(5617.822266 0)"/>
    <use xlink:href="#DejaVuSans-Oblique-32" transform="translate(5681.445312 0)"/>
    <use xlink:href="#DejaVuSans-Oblique-25" transform="translate(5745.068359 0)"/>
    <use xlink:href="#DejaVuSans-Oblique-29" transform="translate(5840.087891 0)"/>
    <use xlink:href="#DejaVuSans-Oblique-2e" transform="translate(5879.101562 0)"/>
    <use xlink:href="#DejaVuSans-Oblique-20" transform="translate(5910.888672 0)"/>
    <use xlink:href="#DejaVuSans-Oblique-52" transform="translate(5942.675781 0)"/>
    <use xlink:href="#DejaVuSans-Oblique-2f" transform="translate(6012.158203 0)"/>
    <use xlink:href="#DejaVuSans-Oblique-50" transform="translate(6045.849609 0)"/>
    <use xlink:href="#DejaVuSans-Oblique-20" transform="translate(6106.152344 0)"/>
    <use xlink:href="#DejaVuSans-Oblique-63" transform="translate(6137.939453 0)"/>
    <use xlink:href="#DejaVuSans-Oblique-6f" transform="translate(6192.919922 0)"/>
    <use xlink:href="#DejaVuSans-Oblique-6e" transform="translate(6254.101562 0)"/>
    <use xlink:href="#DejaVuSans-Oblique-74" transform="translate(6317.480469 0)"/>
    <use xlink:href="#DejaVuSans-Oblique-72" transform="translate(6356.689453 0)"/>
    <use xlink:href="#DejaVuSans-Oblique-69" transform="translate(6397.802734 0)"/>
    <use xlink:href="#DejaVuSans-Oblique-62" transform="translate(6425.585938 0)"/>
    <use xlink:href="#DejaVuSans-Oblique-75" transform="translate(6489.0625 0)"/>
    <use xlink:href="#DejaVuSans-Oblique-74" transform="translate(6552.441406 0)"/>
    <use xlink:href="#DejaVuSans-Oblique-69" transform="translate(6591.650391 0)"/>
    <use xlink:href="#DejaVuSans-Oblique-6f" transform="translate(6619.433594 0)"/>
    <use xlink:href="#DejaVuSans-Oblique-6e" transform="translate(6680.615234 0)"/>
    <use xlink:href="#DejaVuSans-Oblique-20" transform="translate(6743.994141 0)"/>
    <use xlink:href="#DejaVuSans-Oblique-69" transform="translate(6775.78125 0)"/>
    <use xlink:href="#DejaVuSans-Oblique-73" transform="translate(6803.564453 0)"/>
    <use xlink:href="#DejaVuSans-Oblique-20" transform="translate(6855.664062 0)"/>
    <use xlink:href="#DejaVuSans-Oblique-6e" transform="translate(6887.451172 0)"/>
    <use xlink:href="#DejaVuSans-Oblique-65" transform="translate(6950.830078 0)"/>
    <use xlink:href="#DejaVuSans-Oblique-67" transform="translate(7012.353516 0)"/>
    <use xlink:href="#DejaVuSans-Oblique-61" transform="translate(7075.830078 0)"/>
    <use xlink:href="#DejaVuSans-Oblique-74" transform="translate(7137.109375 0)"/>
    <use xlink:href="#DejaVuSans-Oblique-69" transform="translate(7176.318359 0)"/>
    <use xlink:href="#DejaVuSans-Oblique-76" transform="translate(7204.101562 0)"/>
    <use xlink:href="#DejaVuSans-Oblique-65" transform="translate(7263.28125 0)"/>
    <use xlink:href="#DejaVuSans-Oblique-20" transform="translate(7324.804688 0)"/>
    <use xlink:href="#DejaVuSans-Oblique-62" transform="translate(7356.591797 0)"/>
    <use xlink:href="#DejaVuSans-Oblique-65" transform="translate(7420.068359 0)"/>
    <use xlink:href="#DejaVuSans-Oblique-63" transform="translate(7481.591797 0)"/>
    <use xlink:href="#DejaVuSans-Oblique-61" transform="translate(7536.572266 0)"/>
    <use xlink:href="#DejaVuSans-Oblique-75" transform="translate(7597.851562 0)"/>
    <use xlink:href="#DejaVuSans-Oblique-73" transform="translate(7661.230469 0)"/>
    <use xlink:href="#DejaVuSans-Oblique-65" transform="translate(7713.330078 0)"/>
    <use xlink:href="#DejaVuSans-Oblique-20" transform="translate(7774.853516 0)"/>
    <use xlink:href="#DejaVuSans-Oblique-72" transform="translate(7806.640625 0)"/>
    <use xlink:href="#DejaVuSans-Oblique-65" transform="translate(7847.753906 0)"/>
    <use xlink:href="#DejaVuSans-Oblique-73" transform="translate(7909.277344 0)"/>
    <use xlink:href="#DejaVuSans-Oblique-65" transform="translate(7961.376953 0)"/>
    <use xlink:href="#DejaVuSans-Oblique-72" transform="translate(8022.900391 0)"/>
    <use xlink:href="#DejaVuSans-Oblique-76" transform="translate(8064.013672 0)"/>
    <use xlink:href="#DejaVuSans-Oblique-65" transform="translate(8123.193359 0)"/>
    <use xlink:href="#DejaVuSans-Oblique-73" transform="translate(8184.716797 0)"/>
    <use xlink:href="#DejaVuSans-Oblique-20" transform="translate(8236.816406 0)"/>
    <use xlink:href="#DejaVuSans-Oblique-67" transform="translate(8268.603516 0)"/>
    <use xlink:href="#DejaVuSans-Oblique-72" transform="translate(8332.080078 0)"/>
    <use xlink:href="#DejaVuSans-Oblique-6f" transform="translate(8373.193359 0)"/>
    <use xlink:href="#DejaVuSans-Oblique-77" transform="translate(8434.375 0)"/>
    <use xlink:href="#DejaVuSans-Oblique-20" transform="translate(8516.162109 0)"/>
    <use xlink:href="#DejaVuSans-Oblique-6d" transform="translate(8547.949219 0)"/>
    <use xlink:href="#DejaVuSans-Oblique-6f" transform="translate(8645.361328 0)"/>
    <use xlink:href="#DejaVuSans-Oblique-64" transform="translate(8706.542969 0)"/>
    <use xlink:href="#DejaVuSans-Oblique-65" transform="translate(8770.019531 0)"/>
    <use xlink:href="#DejaVuSans-Oblique-73" transform="translate(8831.542969 0)"/>
    <use xlink:href="#DejaVuSans-Oblique-74" transform="translate(8883.642578 0)"/>
    <use xlink:href="#DejaVuSans-Oblique-6c" transform="translate(8922.851562 0)"/>
    <use xlink:href="#DejaVuSans-Oblique-79" transform="translate(8950.634766 0)"/>
    <use xlink:href="#DejaVuSans-Oblique-20" transform="translate(9009.814453 0)"/>
    <use xlink:href="#DejaVuSans-Oblique-69" transform="translate(9041.601562 0)"/>
    <use xlink:href="#DejaVuSans-Oblique-6e" transform="translate(9069.384766 0)"/>
   </g>
   <!-- the Central baseline, lifting R/P above 2023. -->
   <g transform="translate(301.390977 472.551234) scale(0.085 -0.085)">
    <defs>
     <path id="DejaVuSans-Oblique-43" d="M 4447 4306 
L 4319 3641 
Q 4019 3944 3683 4091 
Q 3347 4238 2956 4238 
Q 2422 4238 2017 3981 
Q 1613 3725 1319 3200 
Q 1131 2863 1032 2486 
Q 934 2109 934 1728 
Q 934 1091 1264 756 
Q 1594 422 2222 422 
Q 2656 422 3056 561 
Q 3456 700 3834 978 
L 3688 231 
Q 3316 72 2936 -9 
Q 2556 -91 2175 -91 
Q 1278 -91 773 396 
Q 269 884 269 1753 
Q 269 2309 461 2846 
Q 653 3384 1013 3828 
Q 1394 4300 1883 4525 
Q 2372 4750 3022 4750 
Q 3422 4750 3780 4639 
Q 4138 4528 4447 4306 
z
" transform="scale(0.015625)"/>
     <path id="DejaVuSans-Oblique-2c" d="M 575 794 
L 1234 794 
L 1131 256 
L 422 -744 
L 19 -744 
L 469 256 
L 575 794 
z
" transform="scale(0.015625)"/>
    </defs>
    <use xlink:href="#DejaVuSans-Oblique-74"/>
    <use xlink:href="#DejaVuSans-Oblique-68" transform="translate(39.208984 0)"/>
    <use xlink:href="#DejaVuSans-Oblique-65" transform="translate(102.587891 0)"/>
    <use xlink:href="#DejaVuSans-Oblique-20" transform="translate(164.111328 0)"/>
    <use xlink:href="#DejaVuSans-Oblique-43" transform="translate(195.898438 0)"/>
    <use xlink:href="#DejaVuSans-Oblique-65" transform="translate(265.722656 0)"/>
    <use xlink:href="#DejaVuSans-Oblique-6e" transform="translate(327.246094 0)"/>
    <use xlink:href="#DejaVuSans-Oblique-74" transform="translate(390.625 0)"/>
    <use xlink:href="#DejaVuSans-Oblique-72" transform="translate(429.833984 0)"/>
    <use xlink:href="#DejaVuSans-Oblique-61" transform="translate(470.947266 0)"/>
    <use xlink:href="#DejaVuSans-Oblique-6c" transform="translate(532.226562 0)"/>
    <use xlink:href="#DejaVuSans-Oblique-20" transform="translate(560.009766 0)"/>
    <use xlink:href="#DejaVuSans-Oblique-62" transform="translate(591.796875 0)"/>
    <use xlink:href="#DejaVuSans-Oblique-61" transform="translate(655.273438 0)"/>
    <use xlink:href="#DejaVuSans-Oblique-73" transform="translate(716.552734 0)"/>
    <use xlink:href="#DejaVuSans-Oblique-65" transform="translate(768.652344 0)"/>
    <use xlink:href="#DejaVuSans-Oblique-6c" transform="translate(830.175781 0)"/>
    <use xlink:href="#DejaVuSans-Oblique-69" transform="translate(857.958984 0)"/>
    <use xlink:href="#DejaVuSans-Oblique-6e" transform="translate(885.742188 0)"/>
    <use xlink:href="#DejaVuSans-Oblique-65" transform="translate(949.121094 0)"/>
    <use xlink:href="#DejaVuSans-Oblique-2c" transform="translate(1010.644531 0)"/>
    <use xlink:href="#DejaVuSans-Oblique-20" transform="translate(1042.431641 0)"/>
    <use xlink:href="#DejaVuSans-Oblique-6c" transform="translate(1074.21875 0)"/>
    <use xlink:href="#DejaVuSans-Oblique-69" transform="translate(1102.001953 0)"/>
    <use xlink:href="#DejaVuSans-Oblique-66" transform="translate(1129.785156 0)"/>
    <use xlink:href="#DejaVuSans-Oblique-74" transform="translate(1164.990234 0)"/>
    <use xlink:href="#DejaVuSans-Oblique-69" transform="translate(1204.199219 0)"/>
    <use xlink:href="#DejaVuSans-Oblique-6e" transform="translate(1231.982422 0)"/>
    <use xlink:href="#DejaVuSans-Oblique-67" transform="translate(1295.361328 0)"/>
    <use xlink:href="#DejaVuSans-Oblique-20" transform="translate(1358.837891 0)"/>
    <use xlink:href="#DejaVuSans-Oblique-52" transform="translate(1390.625 0)"/>
    <use xlink:href="#DejaVuSans-Oblique-2f" transform="translate(1460.107422 0)"/>
    <use xlink:href="#DejaVuSans-Oblique-50" transform="translate(1493.798828 0)"/>
    <use xlink:href="#DejaVuSans-Oblique-20" transform="translate(1554.101562 0)"/>
    <use xlink:href="#DejaVuSans-Oblique-61" transform="translate(1585.888672 0)"/>
    <use xlink:href="#DejaVuSans-Oblique-62" transform="translate(1647.167969 0)"/>
    <use xlink:href="#DejaVuSans-Oblique-6f" transform="translate(1710.644531 0)"/>
    <use xlink:href="#DejaVuSans-Oblique-76" transform="translate(1771.826172 0)"/>
    <use xlink:href="#DejaVuSans-Oblique-65" transform="translate(1831.005859 0)"/>
    <use xlink:href="#DejaVuSans-Oblique-20" transform="translate(1892.529297 0)"/>
    <use xlink:href="#DejaVuSans-Oblique-32" transform="translate(1924.316406 0)"/>
    <use xlink:href="#DejaVuSans-Oblique-30" transform="translate(1987.939453 0)"/>
    <use xlink:href="#DejaVuSans-Oblique-32" transform="translate(2051.5625 0)"/>
    <use xlink:href="#DejaVuSans-Oblique-33" transform="translate(2115.185547 0)"/>
    <use xlink:href="#DejaVuSans-Oblique-2e" transform="translate(2178.808594 0)"/>
   </g>
  </g>
 </g>
 <defs>
  <clipPath id="pa2269684f1">
   <rect x="57.230547" y="41.7555" width="723.31" height="380.6"/>
  </clipPath>
 </defs>
</svg>
